<mxfile host="app.diagrams.net" modified="2024-04-02T21:56:19.213Z" agent="Mozilla/5.0 (Windows NT 10.0; Win64; x64) AppleWebKit/537.36 (KHTML, like Gecko) Chrome/123.0.0.0 Safari/537.36" etag="7LRIrq9eG0qUkYgJXmH8" version="24.2.0" type="device">
  <diagram name="Страница — 1" id="fxfZ61G_W52e-zdVARlx">
    <mxGraphModel dx="2816" dy="1198" grid="1" gridSize="10" guides="1" tooltips="1" connect="1" arrows="1" fold="1" page="0" pageScale="1" pageWidth="827" pageHeight="1169" math="0" shadow="0">
      <root>
        <mxCell id="0" />
        <mxCell id="1" parent="0" />
        <mxCell id="0IBKbkdzDP0uwMvQtR2e-4" value="" style="edgeStyle=orthogonalEdgeStyle;rounded=0;orthogonalLoop=1;jettySize=auto;html=1;" edge="1" parent="1" source="0IBKbkdzDP0uwMvQtR2e-1" target="0IBKbkdzDP0uwMvQtR2e-2">
          <mxGeometry relative="1" as="geometry" />
        </mxCell>
        <mxCell id="0IBKbkdzDP0uwMvQtR2e-5" value="z1/3" style="edgeLabel;html=1;align=center;verticalAlign=middle;resizable=0;points=[];" vertex="1" connectable="0" parent="0IBKbkdzDP0uwMvQtR2e-4">
          <mxGeometry x="-0.2827" y="-5" relative="1" as="geometry">
            <mxPoint x="9" y="-5" as="offset" />
          </mxGeometry>
        </mxCell>
        <mxCell id="0IBKbkdzDP0uwMvQtR2e-1" value="1" style="ellipse;whiteSpace=wrap;html=1;aspect=fixed;" vertex="1" parent="1">
          <mxGeometry x="330" y="240" width="43" height="43" as="geometry" />
        </mxCell>
        <mxCell id="0IBKbkdzDP0uwMvQtR2e-7" value="" style="edgeStyle=orthogonalEdgeStyle;rounded=0;orthogonalLoop=1;jettySize=auto;html=1;" edge="1" parent="1" source="0IBKbkdzDP0uwMvQtR2e-2" target="0IBKbkdzDP0uwMvQtR2e-6">
          <mxGeometry relative="1" as="geometry" />
        </mxCell>
        <mxCell id="0IBKbkdzDP0uwMvQtR2e-10" value="z2/4" style="edgeLabel;html=1;align=center;verticalAlign=middle;resizable=0;points=[];" vertex="1" connectable="0" parent="0IBKbkdzDP0uwMvQtR2e-7">
          <mxGeometry x="0.1511" relative="1" as="geometry">
            <mxPoint x="-5" as="offset" />
          </mxGeometry>
        </mxCell>
        <mxCell id="0IBKbkdzDP0uwMvQtR2e-2" value="2" style="ellipse;whiteSpace=wrap;html=1;aspect=fixed;" vertex="1" parent="1">
          <mxGeometry x="430" y="240" width="43" height="43" as="geometry" />
        </mxCell>
        <mxCell id="0IBKbkdzDP0uwMvQtR2e-3" value="" style="shape=image;verticalLabelPosition=bottom;labelBackgroundColor=default;verticalAlign=top;aspect=fixed;imageAspect=0;image=data:image/png,iVBORw0KGgoAAAANSUhEUgAAAlAAAAKDCAYAAADVSDTEAAAAAXNSR0IArs4c6QAAAARnQU1BAACxjwv8YQUAAAAJcEhZcwAADsMAAA7DAcdvqGQAAJ4FSURBVHhe7f1brB3JeeeJrjpvPoNuwG1ZF4pNF2rXGG0Zo/YFpjBUkZqmDG6OAB1ZY5ZNUrKbMxgT3gWUW/DQZD3wWFV9+OBd5jFUpSnSoNszhFvmLpfokTXyaEjCZkvcJQqiIdmthtWAh7tA8VBbF2v00C9+6zr5i53/xW8FM9daufe65/8HBFZkZGRcvoiM+PKLWJmPvVnQMWbEPPPMM52LFy921tbWOkePHi1Dt3jxxRc7Z86c6WxsbHTu3LnzyPntMijdJ598Mp3DPfHEE2Wogddff72zf//+zvLycufatWtlqJkktMGDBw8e6bdvvPFG5+rVq53Tp0+XIY/i9utPv/HILD5f/vKXO48//nh5NDqsQJmRo8Fc5IPWq6++2jl27FhnaWmpc/fu3TJ05/RLV8qVsBLVi5RL8CQ8f7j96hk0HpnFxwqUMcYYY0xDxqVA/T/KX2OMMcYYMyRWoIwxtbD0yR4cY4wxvViBMj0wWT722GN9HXsK5oG83GCFYDDsp5HMLl26NPN7xeiPlFXtip/9cMYYM06sQJlHWFlZ6bA1TptSYX19PYWtrq6WIbMLk6cUJupAuXGExY3k5lEOHz7c0+6XL18ufbPLU089lf44gFO7e5OwMWbcWIEyPWBtuHDhQnn0KPyVmglrVsEKwT/xAEUgWk9QolAOTTXIjn8vSuHEzXJbR/JyG2PMuLECZbaNlk5wLI0B71tRWFzq43wMz5cKsXwInYthVZCmlmpIk7x5Xw5gjahaekI5VLgsVTiWrUSsA071iPGjo7x19cnDo8xwr732Ws9xfr4qb9U5Eq+j/CLmr/A8D8G7s7A4VZ2jPgpD7vG4Ll05wuOyYF7+2DdINx7HdqlKI8qF8/EYl5OnEY/zeskRFtONcVSO2Gei/CHPg/O0C3C90jDGzBnF05oxlWxsbPAon9z6+noZugXHhK+urnbjKU6hvKTjlZWVdAxKR2H8csy18q+traVzSpt06iDu8vJy8it/ICzmU0csP+BXenm6MS3FV5nz46r6ECfG1bHSzc/ndSAdpadyk0+O0sEJlUVheZ2QseRMGP6qc7pOxyqT0hWqg84rLZVbss0hXc6rXjpWn5JMQPXMz+kYP07yj+TlUFp19QTVQfmojiqjwB+PhfLM8xCEq+zGmNFz+/btNzc3N0fubIEy2+LKlSvpd9++fV2LTtFJ0+/JkyfTL2/+BZ6wi0kn+QWWoKJfJ6uH4gmWjThX95JNLBos0509ezYdFxNQ46W5WH4oJsfO9evXk2UgfwnhMO8P6VefJlRZI7QPae/evZ1du3YlP/lUITkonbzsstAdOHAg/R46dCgtdSJTwF93LjLJvVG0CW1DG4HaTG0YwbqjeIMg3Zs3b5ZH9eRL2sof+UBTCxL3C+2EZQrOnTuXXvQoq5QxZj6wAmV2BAM/SxNw79699AuayFmyqIMJ5NatW42UHyYZ8kRpQtHSJHTq1Kn0K2Xuxo0b6beOusmqeKpIvygN5IHr9wmNyKD6sIEdWfXbyM71Bw8eLI96UXng/v376Tfn+PHj6Rflkon9yJEj6VjENorwCZE68nMoKf32yfUDRUjLWflSF1A/zqG4CbVJTt6GKPBS/obh/PnzXSV8lKh+6ptV0E7UkeVAbXhX2xpj5gMrUGZHrK2tJcsLLk6qmshRFnbv3p38ESZPJhApPsOCgrS+vp6uRUGQlYrJEJQv56uUJFkLpGjlyMKDckYaOE2EpLdnz57kzxmmPljhkFNujRPIqp9iQr0l6zqljnIzEVMWlLGcOmsabdTvnCDdJkpKDtYhyo+SiaUut96QPuejMqE2ycnbEGvSsP++Q5FTXxk1lJ/7grpUKYkg6xnWTsmA9jXGzA9WoMy2iJYOQLmIkwUTOZMlDn+OLERYF3JrEWnxBM/TeRWkxwSlZSQmKi2bcU4KSv5ET/lkuVH5teyoJaIqxYr0ASWtboLuV59hqVOsTpw4kX5Z6gGsY/0se4pXpczJIiXlirIiJ+TW75zguEoGtBdlqrNw1VFnSYvQJrQNbQRqs1wBamJNquuXw6D81c79lLYqJZ4w+qv6FeWmP2+3PMaYKVE8LRnzCGzApXtEV0zw5dktONa5YmJNYSsrDzdTkwYOv+Lh2DCreLjoJy7n8SvNOsif9EFpijxPnOKKWMeYV7wGl5c3d+RVV58vfOELXT9OdZP7kz/5k57j/DzHENMsJv8UFtF1aiPF4VfXST55HpH8HHWDmA555OkiP/ySsc7hSFPno1MZYz8irKpfQUxD+eRtGI9xOXka8Tivl2QpdC7GUTli+0QHeR7EVbtyfZ6PMWa0FA89lZvAd+r8MWFjhgDrFUtc+dKZ9uvULQmaxQGLKFawQvmxtciYOcIfEzZmylTtO1qtWXYzxhiz2NgCZYwxA2Cjt95wD7ZCGTM/jMsCZQXKGGOMMQuLl/CMMcYYY2YEK1DGGGOMMQ2xAmWMMcYY0xArUMYYY4wxDbECZYwxxhjTECtQxhhjjDENsQJljDHGGNMQK1DGGGOMMQ2Zixdp/pt/829K3874kR/5kc6HP/zh8sgYY4wxi06r30SOAvWud72r88M//MNlSHO++c1vdv7hH/7BCpQxxhjTIlr/JnKUp5/4iZ+odD/ylrd0Xv/SlyrPyf3QD/1QmZIxxhhjzM6Y+z1Q3/v7v++88MK/7nzuz/+Pzu+svliGGmOMMcaMj7lXoP6X/+V/7Xz///6/k/+v/+ZvOn8wov1SxhhjjDF1zL0C9T/8D/9958S//JfJf+a3fqvzoQ99KPmNMcYYY8bF3CtQb/3RH+38F//F/zP5f+ZnfjodG2OMMcaMk7lToNjz9FtnznS+9rW/LkOq4fzLn/yfyyNjjDHGmNExVwqUNozfv///63z3e9/r3FpfT+7+/fvpvI5x3/iP3+j8xV/+pTeWG2OMMWbkzM17oN773vemVxXwb7umnPqffrPz5n/+z50f/OAHfg+UMcYY0yJa/x4o+LX/8X/s7Puv/+v0Tqfzv/ti53//s88kh4IEOsad+Je/msL4PbB/f/IbY4wxxoyCudsD9dyZ051f/qWnOz/+X/6XZUg1j//Y40l5+u9scTLGGGPMiJnLf+ENoxTxjzwrT8YYY4wZB3OpQEX+t898pruJ/P+8dj1tNDfGGGOMGSdzr0D93d/9X53XPn01+S/+/u93vvrVryW/McYYY8y4mHsFij1RbCwH9jz9t4eXk98YY4wxZlzMvQIFKFH8E897nowxxhgzCebmPVC7d+9Ory/YLrwDCvweKGOMMaY9jOs9UHOhQH3mM58pfTvjH//jf9x5//vfXx4ZY4wxZtFptQI1Sh577LHSZ4wxxphJME1VwwrUiECBalmVG2H5GLNY+J5uB7PcztMumz/lYowxxhgzI1iBMsYYY4xpiBWoMYHJUu7JJ58sQzvJT9gzzzxThphx8OKLL/a0wauvvprCkXsMf/3111O4MW2FeyDeE3WOe8oY8xDvgRojUpIuXLiQfhmA9u3b13nqqafS8SwySfmMmzfeeKOztLTU2djY6DzxxBNlaCcpU2fPnu3cvXu3DDFmcRn2nubh7ty5c52jR4+WIfX3kJk9Rj12M07y+qBRzFfTnle8B2oBuHnz5kwrT8YYYwzwkGn6YwVqQhw+fLhz4sSJ8qgXzqGh47TUBPkylBxPhWZ05EsYWtbLw+Ix7cRvXJ4FtZnC43UKi+2KlTIuK2qZpOo6UFjVOZVJjn6Ci2F5unneVX2xqnxVVF0b65o7pRXjyGoLHMfyxrxjXvghTycvt/y4vD2HkYN52C+j/PCLurakrylcDhlHOedtlLcJxD6udoe8n0PexnL5fYJT+jrO+xS/sQ6qc15+iPnm91j045S+zlXVOY8zCcgLq+P+/ft75Gwy3mwZk6zyyspKyg+Hv4rl5eU3V1dXk399fT3FXVtbS8egc8A54oyTScpn3BQDQFf+uVtaWipjbbWBZE47cSyIK5krPX6BtiGd2CZcG9PO81F78hvzIV/1EfUDkacZyxTTjGUhXOnl5c7Tj3lDTBO5yJ+nE4nXKH3JdFBdY96qG3XBr3IqTX51HlQmwqBfXhDj5vXJ48Y6zTOS4SCQaRx7IMpIfpxkjHyUPnKtkzVIluQR+3NV3xGxTcg/tm0sL9eoHQknvao08eNiGWIdgXD5oa5OhCsPpVFXj1jHPD/CY71inUmnLv+cmN8o6JdXU0Zdtqbcvn37zc3NzZE7W6DGTNH5O8XN2rl48WIZ8hCemq5fv945cuRIOmZ5j/iXL19Ox2Y0FAMVd2/X0R6Ra9eudfd99Fsnr3r6O3nyZOfKlSvJz5NnvteKvPX0SFuzjDsI0qMfCPbQkU580hfs49qzZ0/XryXi7e5XocyUU9AXz5w5k8pfTCwp7M6dO+lX7KQfU1fuDckIisGuuz+tGMDTL2kWk0w6h1/nd7Ivp9/TfC4HsyVrtQf3DJw+fTr90jfr2nJUXL16NbWJ0ueeuHXrVmor+ob6An2DcqlsEfqO7hFRTITpV9dzT5MXkPbx48eTP0Kfp67q81xLn7906VI63i7IMc4V45ap2RlWoCYAkzM3eG4KzW9cGMdGNzMcmNtRFnIePHiQBq+qJVgGUAY4BlQGtgMHDpRnOp379++ndo/KmyYeiJNBHDRJK/aD2D8EpnWuQ0mJm34hT0+gAHGOa6ugfzIhUWbBZITCGeuQ57eTfkxdiyfwnvSrJj7I5cDkRn2a0q89oUoOph4p1k3acjvcu3cvKSkxfR4uuM+q7pFB6OGGfkBagjJrHKAf5AoX94/qHIn3/nZAoWcTf3x4GrdMzc6wAjUhmDiZMBn0xa5du9JvblnYzmBgto/2Hdy4cSMNVjlspmTg2rt3bxnSC9foiTWCZUiWkiqichUHTdq/ylKl/gJYAriOAVeKOb/UI09PyBInK0IEhYt66h+jAqWSCaofO+nHxGFiHAYmE2TKL/VkcqM+TenXnnVyMPXQr+gD/dqSvsE/kHcCSjltn0Of4N5tCkoQ/YBr6U9xbOb+4bjqQYD7hzqDHh4E98t2YG5AAYsPWNDk/jCTxwrUBOFJ/tixY91BgJuDSTQ+CWMClsmYzYM7HXTMYJg0GRTrJvxBS1FYoXhilTlfMEEz0GozKAyzCZT2j8o2v/STqvIRhpJGn+IaDexNYcLIn7Th4MGDqW7qs0yEcaKBQf24H0wayF/KF/lEeWm5QvXD+oWySn7bVXL6tWedHEwvaq/YN/u1JYr+TuXKWJg/hHI/6T7Lw4dF91V8UKDvMlbXjb9VfZ5+VWfVHARp5ZZdGHR/jJMqK5vJKDTwVjGpKpOPXNERy9CtDYIKF5xXGJsbIcbLXTFYpDjjgPQXgdXVrc2tcnVyLRSnnjC1RTGgdcNwxIvHpCc/kF+MozbPr+M4lo28Y/6cg5h+7D8Ki440IZZZ9fjIRz7SDcPlZczzjmlUySyWJUd5xmuHqWuMgxP4Y3lUT/q/wnDKN6YdHeEQw/J2yctVJYd5hTr0o0oWEPsgDrkobpRPpKot43F0pBHT6efUV/IyaSzM66C+UhWep4Gr6teSg4j9W+nHMJUxz7POUfYoL/LL+yFUybSKfue2g8pSJZumjLpsTSkexCo3ge/U+UWaMwpPUJiP8/VuTMSYnPXUNGrmRT5m8aEvFpPRji0XemJv696RUd7TWELYA9QkPfLHQhTHLNLBKpUvWc0KWHqwdI6zz4x6rJ3lsXvaZfOLNFtI1c3LoGOMGR5vup0uKysrjzzwoRSzPDyroDzlS/KjZrViv6WZL2yBMj1YPmYWwNKK1QJGYYVqM6O6p7HKLIV9MYs4TqjfodzMm+JtC1Q947JAWYEyPVg+xiwWvqfbgRWoeryEZ4wxxhgzI1iBMsYYY4xpiBUoY4wxxpiGWIEyxhhjjGmIFShjjDHGmIZYgeqDvpGG08v4+FyAwnKnzwfEOPEDwvxFlnP8xvgQ8+I85OlQBh0TX+ngeDGd/Ljnnnuu6yduTH9SnwIwxpicqvGRVyQoLHcaD/M4QmOjvgUZx9w4ZuqaOFZqTNYx1yodXByvcXw+SP6qa03LeLNlDFtlvVYfeOU+1+nV+nwKIL7ennA+SQDElR+IR/z4yQLiKE3OyS8UDv3yAqUvuFafGcjjxjrVEcthjJl/Zumezscz/HHspKz8gj6JIuJ1GstwxMFp3MOvsTqmx/UKz9POy0WZFBc4p3F20LXTIpZp1ph22cb1KRdboGrgA476GCpv0S1upvSB1EHwBls+eKmnkuLmTV+N55MFxU2WPihMerji5k/n8BdtXKaw/Y84RotWDk9d1MkYY6YFH9w9efJkebR1zHiJdakfjF+MpRpXGcv4pBUWoULZSeOzXraK/+bNm8nPuKq3oMuS1RSsWORdBx8dNu3EClQFupl37dqVfmHPnj2lrz/37t1LihE3rlzdV+PzF3vJtNzvZq2D6/hydxUoVnwChnIZY8y0uHv3bs9YGsfYfjx48CA9WMZxlbSqyMdqLf2hqDVFSlfVQ62W73goNu3EClQFemK5c+dO+hXDPMGgFA16mhIoW1KiuBFRchgYmlqgeALiuqNHj5YhD2HQQLGa1Y92GmPaA2MoVvccjbl17N69e+gHy/v37/dYnQ4dOpTGRyxVTThz5kyyctV90oV6kK5pL1agasBaE02zmJpPnDhRHtWzb9++pLTwdCLi0locPDBD88FK4qI0bVfJ6fcExKBRpVgZY8ykYQxl3MPaDmx5GMYyruW5OJZGv5bsgK0WbL/Qsl+dpWoQLAX2U+zqVhZMiyg06FbRpMpsJCQ+ThsK2TCoMG001HExEDwSB1fcxCm8UJJ60iSeiPGJx++zzz7bEy5HGqB4OG1slCuenrp+yoXTsepSBeeNMYvDrN3TcczUWMYYqTBcHM8Y56riaPwkjTiuxvEtjpHyx7EwOuWTj9ExjVdeeaXrJzyfD6YJZZhVpl22cW0i98eEJwjmZJbpdmoRwmKFJWscT0DTlI8xZvQs+j3N6wMOHjxYu9Q2LFisGJ/ndbvDLLfztMvmjwmbLihg4+gMxhjTVlgmRBEzZlhsgZoQPCXpXyBra2szuy/JFihjFotFvqfZB6XXs6yuru7YCjXP2AJVz7gsUFagTA+WjzGLhe/pdmAFqh4v4RljjDHGzAhWoIwxxhhjGmIFyhhjjDGmIVagjDHGGGMaYgXKGGOMMaYhVqCMMcYYYxpiBcoYY4wxpiFWoIwxxhhjGmIFyhhjjDGmIa18E7kxxhhjJscivom8lQrUl+59rjwyxhhjzDh57+Mf9KdcjDHGGGOMFShjjDHGmMZ4Cc9si19638nOt7757fKomnf+2Ds6r33xUnlkjDGmjXgJz8wNv/mrH08dFnf+7MUydLSgGD3z3InOew78TFJIoyOMc1aejDHGLCpWoBaQ3/ujFzof/ugHkhJz6txKGWqMMcaYUWEFyoydaBGTYwkQsJDlYX/8+3/aDeN8jBPP4b7+V9/oOQbyI57y5TcSy/MXn7uVwvJ04zmgbAqXVS8vV0z30//r/97142I5Vc/N+9/piWOMMWZ+sAJlxo4sYizvXfz0agpjeQ8F4jOf+nx36Y89VSgtH/n1X+wuD2JBw3E9jnPEBdJ698+9q/PpW3+QjvlFqfnKra91LvzO5c6JZ385xeUYBQdQcn5237u7Zfn4s7/7SJ7xHHB+94+9oxtOmSl7Xi7qqeXLp//7/1dPuShnrDt87Fd+O6WJIw0pZsYYY2YfK1Bmauza8/akPAg2nW+HqHig1EiJQWkB/F+9/fWk9KBM/YsPvDeFcx7F5fOf/st0HPned77fLc/Pf/BAUo7gLW/7J+l3O5w79YnS10kWKRRGWZ9Qyu6s/3V51hhjzKxjBcpMHS1v5f/qQ9mJCkYOSg7nPvD0+8uQat72zh9Nv9//7g/SL4qbeMfut5a+LZQnSlW+CR4r1tMHfq08eghlUzm5Pucb//7v0rmTpz5ahjxU0GSBwnnTvTHGzA9WoMxEyBUVgWJx+ZN/khSI3AKl5TQclqKcS+c/lc6965//eBlSzXe/9fdJaZL1CIUtEhUq5cnyH2UjrhQ80LJchLKpnFyfgzLGube+/S1lSCf5B70GwhhjzOxiBcqMFfYcoYB8+8H3ypCHsLcIpUnLY005e/5jpe9RWLITn1273jn0ofclRQkFJy6l6VyOlC0sRTc++8XuPqftUPVPSC0vxuVH74Eyxpj5wS/SXEBQWrSUxMR//OSH09KTNl2PgvxFmpKpLDWAcrR3/0+nJS5toF55+kz65RxLVnl80tQvyPKkJTz2M7FBXJCu0gTKQf1BMuCaqPzEsr/wyd9Ke5xYnovpAsoWyh0KYCy3rj30C/9N58affSH5tc9KeX7s47/W+cQLD61VsZyqO3uy4pKgymKMMYsE4/wivkjTCpRZOPRPu+1ajIwxxoyORVWgvIRnjDHGGNMQK1BmoYjvgdK7n4wxxphR4yU8Y4wxxowNL+EZY4wxxpiEFShjjDHGmIZYgTLGGGOMaUgr90AZY4wxZnIs4h6oVipQLatyIywfYxYL39PtYJbbedpl8yZyY4wxxpgZwQrUhEETr3Li1Vdf7Tz55JPlkRkE8opy5NgsHs8880y3bbk/3njjjeQ3xoyeF198sTum+l6rxwrUBKEjrq6uJlMmbn19PYVvbGykXyaIY8eOJb8ZDDc58pI8cRxbido59NWomB4+fLg8Mx2OHz+e2payHDp0qPPEE0+UZ4wxo0QKE+Mp89X58+fTsXkUK1ATZHNzs7Nv377yqNM5ceJEZ21trTsZHD16tKtUmf5wk585c+YReSFPK6E7B4tPVEyvXbtWnpkOTz31VLcsFy5cKEONMePg9OnT6Zf5ahx7hxYFK1AThEkAB0xQLEWgNJnm3LlzJ/1KnmLv3r3p9/XXX++xoESH7PmtMlPH62TJivHyc7Qhx7LQ5JabeC7PLx6TnvwxnLKqvDiIcSlvpCr/l19+Of1SDhx+0hQK09IxaR48eLB7fYwb5aPwWD6c6gsxHGLcWA+VEUf9Y5miv67ueTjXqD4iyjXW47nnnuv65V577bX0S3nVxlwvFBbraswiEK27V65c6SpTpoLiia5VzEKV19fXUzk2NjbKkIdwbmlpqTyaPPPSJdbW1mrLSjjnc1nil8zxLy8vJ//KykpyoPjEi+mvrq52fxWXX/IA0iJPUN4xDY51HeeVd36d4tSVHadr8zigvGNa/HJMWWK5+KU+yp94HOOUB5AHcYifl0lywU/aoDorLVAZIMaNcTgf843yV3khphVR+Ulb6efUyTvmzbUck5byJUzl4RqlH9ObVaIczeIyynbWGIHT/bkTpt0Hb9++/ebm5ubInS1QUyBfujOjZ/fu3aWvnrNnz6bfU6dOdW7cuJGsEsXAkSwLxSSfzkUrRw7X7N+/P8W/fv1659atW+WZRylu4M7FixdTXJYYiS+0t6du6ZFzlAuwvHEtYeRNuKxngEUzt8ppyauY7NM5+l2hBKS0bt682c2f8nEMWKDEuXPnUt2Iz/4jQbjig2RRjFfpmCdXHNYa0o4oLsuwObKiVYHFJ08rQnqUK5dBDtakOnlzrSzDyAl5EYb86A9N2t2YeYQ+z31cKE+dS5culaEmxwrUhNGSQFy6i0sDZjjiUl2EpRwYNIHWwSTJwCE3KB0UGMWNe3N27dpV+h7CYBTTFijTHPMbkTLHOSl0wKQe09mpIr6+vt5Nq8lep1xJVTqUmXbRshoKB2WOKC4yiaCQoKRxLgcZoPTmaUWUXlQqc6Q45fJuQl27m9lAS6zqi2Z7ePmuP1agJgg3Mk/PcZJioL937155ZIYFpYHJEkuAQJZMjsNOjA8ePEi/V69e7Zw8eTIpS0zgGnBRAPDj4uZ/wUQf/6GCcly3J4bro7WFuINAYcgVCRRH+pAUBJTvfspC5O7du6Wvk9JAicfShMVGUK4jR46ksipdLCz8C055Sz5Y1bCm5qCEIluua2pp5dpYzghKyzCKMUpWP/lSpmEnBsmAX8pF/lXtbmYL2koK7nYfpszWnBWtziaj6GCtYppVJu8qVygC6bz2WeDYJzINyHueKCbDrsxw2psCCltZWUl7VXQMyBfHcZR1TI9r8vTlCIcYVkzw3XRB6ZMOUA7Fpc1xOo75xPCqsufnc2I/Ut6kr/LgVH6I4ZJfzAO/iOVU3rFeONU/xlUeeRnkf+mll7p+8ovxVX/8sVyxrWNahOuaSLw2xi+Uxa4/1jWWA1fVt3C0+yxDGc3iM6p2jveJxo+dMu0+OK49UP6Ui+mhLfLBxH/58uWBT6daEoxLrjyVYWGJYbMO9aC+034dwTyBdQ/r8Lwv0XnMawez3M7TLps/5WLMFEBJyhUllK55Up6MMcaMHitQpnWwZ4X9NHH/1CLD/h32hrG/y39YGA6sjOwDY8+XrJDGGBPxEp7pwfIxZrHwPd0OvIRXj5fwjDHGGGNmBCtQxhhjjDENsQJljDHGGNMQK1DGGGOMMQ2xAmWMMcYY0xArUMYYY4wxDWnlawyMMcYYMzkW8TUGfg+U6cHyMWax8D3dDma5naddNr8HyhhjjDFmRrACNWHQxKsc8JkNHfMpCbP10V9/fqQ/fJpGnxtBXny6xZg2cfjw4Z7xNB9HuSc49r3RDMZej7/1WIGaINy8q6uryZSJW19fT+F8l003OuFra2ut+U5bP5DXoUOHOpcuXSpDTBXHjx9P37pjgkBeTzzxRHnGmHZAn9e4igPGUT78zTiytLSUwkwz+B6kqccK1ATZ3Nzs7Nu3rzzqdE6cOJFucm5+bvTTp0+ncL70zw3fdivU1atXO6dOnUp+PznWQ9/RxHHhwoUy1Jj2EPe3YJFdWVlJ4yhIuTLNQI488Jt6rEBNECY6HNA5WW7RTZ7DuV27dpVH7eTevXtp8Dt58mRSpgTLVTLRRz8yRdHSMTIUCovniK9jlFX5SVPto+NIXGqN+cvUretYVoBYJjmdi2kRLx7jYh2q8tLSBfHi+Vz5junij/XFrzJS73hOLsoKfzyO+cpJ4ZUscKC4sTyE5fKPMoz+eJ3ygLzu8lNOoTqSjuSm81XxY1j061pcXh7KynmIdY9lNaNHD5/0g4sXL/pBYodwDx04cKA8MrUUmnmrmIUqr6+vp3JsbGyUIY+yvLxc+ibLLHWJ4ukn/SKnpaWl5BfFE2b3PPKUvAhfW1tLfsI4B/wqPMqedBWH9JSm4nBMmjmkrfT4VRx+lV4eh3DSlIw51nWcVx3idZSPa4ir80AaihPrE+sfUZ7EkyxJM8o1Xodf+dbFV9li3bmOePxSXvyAHHUt8VQe4ik8yjqWE7/iQ0w3wrVqP85HeQnyIy3OK928niKG5efxcx2ovXAKw6+6UCaVaxpE2S061BXZV6G2XlRG2c6j7rvT7oO3b99+c3Nzc+TOFqgpEJfuquCptu1PUDxJsv7O03sxWaV9YvlTvM7H/WLIDase4devXy9DB4NlIa73F/dc1xrRpC1u3LiRyqP8b926VZ55lOKmTk/LxGUPUyyv9jSRHv2EuAcPHizPdpJpPU8bywfpVUF9kCmyFFhDsZLIAtUEykabQC4f0qUNqI8srlgIYhtSfpAFNuZPeWI5I5R3ULtSz357CAuFJ5ULuRYTRefOnTspnPJRLxxlyInnVXdBe9EeuqepF3KhTbyPZDJwv9KedVZ9MxzcP9o6YfpjBWrCcJMzCcSbHIVJaOCuU67awv3799OkL8eEG5fxgDDOrZeb8UFLKoQzUUZ2795d+nphssVcrUldXLt2Lf1qSWZYmFxV7qhcVC3Jqg5yAgWbYzaFM6Dl7Nmzp/RtgcJx9uzZNIFUQZ9jgs8nfpT5K1euJNnGPon8q/qglAjKVqfk1DFMfBTAc+fOPVJOIF8UyrxdIygr1DP2iWGhfNSLa5FLjs5X1Z32omyC+5jy0iZ5vzKjh3skX7qL46oZnsuXL6f+Tf/lfsLpYdL0YgVqgjCocpNrYgaevNnrIz+Th9bz29xpJRNx5MiRof6Nd/PmzUcmz0EKEPGj8kA7SWlh0//du3eTfxhQeM6fP18ebbVhXf6kHa0TVe1NeigziitLDUoC/74TKByy9uTomipLGvWmT+YKWR1SIoYBRUd1ogwocVLK1L7IOoajAMb7I0K+gx4sUFaq6hmJ7UndR2Wx4N5VfbEYUpa6NjGjBQtgft8zFpjmcP/pQYE+PMw91VoKIbWKaVaZvKtc0UG7ezOiq1vLHyfkO02KQbBbf/yCfSYKf+mll7r+KDfW7ZGljovJvuc3pkMY8RU3poM/PxeJeURHOMSwQrFJeeFAZaEcEPPh+qq0RTynvGJ94vkoO1C+ef5AGVRHyqs0oovlxB/bA6rKBgpTPOB6lQNHnrHdY1uQTyxzLAfXibz95Cd+hHMxb9Vbx3KxPP3qHusd2zper/yU16Qh70Umtkd0hIsYHvvNIkHdRg39O97P22UcZWvCuPZA+VMupgfLZ3tgScHqIOvhPMFSh8qNpQgLWv7EiWVlVE+hpMXfzqchKyyLLFHUWbkWEd/T7WCW23naZfOnXIyZYViqmUflKYclsipFySZ8Y4zpxQqUMS2FvUc8GbK/bFJosy/7ubDaTRKsa/q3ozcYG2N2ipfwTA+WjzGLhe/pdjDL7TztsnkJzxhjjDFmRrACZYwxxhjTECtQxhhjjDENsQJljDHGGNMQK1DGGGOMMQ2xAmWMMcYY05BWvsbAGGOMMZNjEV9j4PdAmR4sH2MWC9/T7WCW23naZfN7oIwxxhhjZgQrUBMGTbzKAZ+20DGfvFhUDh8+3FN3nD+tYYzZLlVjCo4xNY6rHmeagbwss3qsQE0QvsW1urqaTJm49fX1FL6xsZF+r1y50g0/e/ZsCltE+BL+yspKZ21trVtfvo02bqUxDqx8B84YsxjwEWyNqzhgfOEj3+fOnUthjLPT+AbjPIO8TD1WoCbI5uZmZ9++feVRp3PixIl0k3Pzw6lTp9IvN32bJnjqu7y83Ll161YZMnp4Qo0D7N27d8szxph5J+5veeaZZ9ID2tGjR9MxD2zAOEv47du307HpD3Lkgd/UYwVqgqAo4IDOiZKkmxykSHFON30bwDLHF/IPHDiQ/LmVCMsUZmSFKw5KkUz3yAyqrifs4MGD3XCuETG+wslPYXKvvfZa18958sMP8utcJKYvczh+woEy6jzky7jyUzbFxR/zJK38uphvdKQhmeGPcr1w4ULXTxoxv+jP20LE8sbyqG1EDI/1gJgG+VTVgzgQryU/xaWMqqPyVrw8zzwN+ZUHxDJQpig/+eN5nVPaxIEoQ1EVZppz+vTp9Eu7Xbx4MfXlKlC09uzZUx6ZOrgXGI/NAIqn8VYxC1VeX19P5djY2ChDHrK0tJTOLS8vlyGTZVLyKZ4EU15yHCt8bW0t+ZEBsuJY8kA+CuM6/MgRP79113OdILx4skp+rhOEc31eFqXBNYSRj/LAr7SJp3JGiKtw5QsqHxCudJQPxPRVTxGvr4oT84V4reQFqidsJ+8I16qOdfIgXOkCftKP+SkO5cLPr8qlPGI+qg/x8BOmMvNbl6f8nIeYbqSJLFUeyTQvT6QqbNSMO/1ZIsq9iqr+uCiMsp11r9XdD02Zdh+8ffv2m5ubmyN3tkBNgXzpLsLSUjHYJotMfLpfRJBB0beT0xMjv1jleCpHBsCxrCM3btzoWvGKwTD5ZZq/c+dO5fVw6NCh0tdJ+8tu3ryZnrJIQxBO+vnTK3nIUsjTLWnpmLxpMywP+/fvT2FVUBbKpCdlIEx1IbyYTLttTj7ELyb3dNwP6sG1MT5hO4Hr6/LGahJlWwWWgH7yEJSZsgPtd/LkyeRHLsgVOUtGgvah/bQcznnakeuhql9EYp4RLEaD9nzIGlWH+g6yUx8pJqCeZSOux0Url9k5tB/tLbnn0KcZe01/6JfaTmL6YwVqwnCTMwHFm5zJN6IJoY1oCQSlKsqAyZAwlJd+E0/d9cOwa9eu0lcPAzRliAqKJlQU3zooCxNpv7JHhYV8qEPVRF8F6RNfLlc6moDyxsbbqrypK0pmP9mihLCfrZ88pPBR1ljve/fulb5mVD2M5NTlCSh7LFnQRnWgNNL2XL8TuJ6yHDt2rAwxO4X7Kl+6y8dV+nSdcmUecvny5XR/cK9wL+OYt8yjWIGaIEy63ORxfxNPtFWTBk/fw0wKiwaWhXzijTcvE9j9+/eTP24ER64MjlXXE855KT1YA3gSRclgUpRSEy0g/eDpTE+ypIkyES1LdRAnTppcp7rRD1Cst9PmqofqR32igtcUlLe6PXhM/oPKiBKSW/FyGKBzRWTv3r2pnUQ+AUbY0xatCSh1mhyr+gVU5SnoM4MmV9orpt2PqHxeunSpc+TIkfLIjAPuq/y+ZywQ3Fvq01YG+oOcuE9w3MvD3M+tpRBSq5hmlcm7yhUdtLtvQm5aTCLvYiLq1pO6RzjWuWLCS7/FZNQNwwH7HHQep30PdddzXuGFgpDiQpQ75RIxnbx9SIs08MeyKb+YfjxPOkqX9EDncJDnIz9li/WNLq8fcfN8dS2/Uf7RvfLKK11/Xd74VXcc+Yh4TfRHeUAMj2WBKHddV9dG8VrJk3yjnDgGHed5xrrk5RfDyBK/oCyxDFwDMQwXyxrrNWpIf5GJ7Rkd4bHt5PL+uChQt1FD31X/3QnjKFsTxrUHyp9yMT3Mi3ywsmBqbtO/FavgaRqL2E6tlVh72FO0k6W/WWAW+gXWP6xjw1qrxo3HvHYwy+087bL5Uy7GmEfAtD6KpV6WF+ddeTLGmEliBcrMHewXYs8D+3767ZMx7WJW+gUb0jc2NrzXxpgFx0t4pgfLx5jFwvd0O/ASXj1ewjPGGGOMmRGsQBljjDHGNMQKlDHGGGNMQ6xAGWOMMcY0xAqUMcYYY0xDrEAZY4wxxjTECpQxxhhjTENa+R4oY4wxxkyORXwPlF+kaXqwfIxZLHxPt4NZbudpl80v0jTGGGOMmRGsQE0YNPEqF+Fr7ocPHy6P5gPKXFWv6PhWmRk/yPnJJ59M/ldffdXfZDMLD+Nl1ZjDuBTHJn87c3gYQyQ3U40VqAnCxLa6uppMmbj19fUUzodHI+fOnSt98wNf8qceS0tL3frhVDf8TzzxRPKb8YKcNfjxcd1Tp06VZ4xZTOjzcdyBtbW1NC4xnmosOnPmTFKoTH948Lpx40aPPM2jWIGaIJubm519+/aVR53OiRMn0k0eFQs67sGDB8sjY7bHtWvXuoOfFVez6MT9LVhcV1ZWOkePHk3H3AvAfUD47du307Gp5+zZs+lh2Mpmf6xATRCehnDATY6VQDe5uHXrVo+StUhQZ5nRZRrWsh6/CovLl9H8jnKZHyvNGC732muvdf3kKTM/cpeFRmXhWJBuvA7yJQIti8VyK42YT6zrhQsXun7yUBlUX9UFlxPTidfEsiKDXD4xD/mJI1TWWLboOF8lW9W/qswxDCcZCoUTr67OCo/XSgYKU9n7yZ104jkc9Ylyi37iR5kpHdxzzz3X9WuZlDiRWJ8otxdeeKHrl4v1UVheNrVVVZh5yOnTp9Mvcrp48WLqz1WgaO3Zs6c8MnVgfcJit3///iRTU0PxhNoqZqHK6+vrqRxFBy1DtiiejtIv55eXl5N/0uxEPtSneGopj7YgLKbJedWN+qrOMQ7nFa70Yjqrq6vpPGFra2vdMI75jX7OR1kqDaVHHCAf4uayJ47ywM91OJWLcug813E9KC7EOOSnusV0OK+yxDgR0lc6qr/KSr5Kqy4P+fNzg8oGnCMs5lNXZsmY81GWIqYB+Ek7h2tjPI6VB/lFWagcisM5xY1tGsPjdTEOZVEdgHDOy08auKoyA2VWfNJXHvwqb65Xnqoj51WGWDZRFTYMsS6LDnVFtnVIvovIONo5Hwe2y7T74O3bt9/c3NwcubMFagpULd3xRHvgwIHyaLHBPAzszeFJhyfqYmBLYcB5hRc3cHrqLm7idE5P3zxlHjp0qGvB4wk0yhO/nkpBlqIcxWGfBNY/zPtxCbWYsFK4oBzke/fu3XTMky5lIO3r16+nMEFcwilrDvVQnYA82J9BfH6pfz/I986dOylPruFJEVlRT5HnASdPnuyWh+upy3apK3MxXqUw9l8NgniUuwraECsP9cDFdrl582ZKn+upD8fAcg3luHz5ctcKgdWXcKxDeZlUfuRXBfnn7Uoa1D32tyrIj/SroM/IGq09j/TFmJfKRhnMYJB3oWQ+YtUX9CHGXjM8ugdNNVagJoyWCOJNjgn/6tWr3QmBwZyBtK0dd9euXaWvkxQrJmQ5TToMlEz+DIqDQJbE5fqm5OZ+JnsmaNoJZUXLL6QdlUAgLuGUNcKEz6SZKw4o1aqnFLRBkLauwWlSr8sDuGY7ZvkqhaGqzMgFxY1zdVAuyS1X8iJMeFeuXOk8ePDgkbZYX1/v5q19LoI2V9+Q8swDSl4mFGSuJ60crqGt83YljUEKLvcw+ZH+dlHZ6Lv0M1NP1dJdLjPuhzrlytQz6EGhzViBmiAM6NzkcbBncL937156+tRkwGDOoD3sJDpvMBkCSiMWEZQiJjxN6lhGYrgmQs5HhQkL1jBPlP1kKYsNFovjx4+n/Wc8+SscSwPhEQYUJv3Nzc1k+aiafPuBApNP+Ey2sswBivYg9u7dm/qTysqEIX9VHoL6oKxz/TDk+3xEXZnPnz/ftarUgfzo64NgwqOOOVijYh7Km4cO2po2QYlBHvQn5NF08qR8dZMHefdrI/IfNr/79++nX/o35TTNoT/n96GskkC/0P0wzL1ltqBPtmVlZFsUg0SrmGaVybvK5fsaioFgamv1lGc7UOZYp6qwjXI9HccxvyLGjXUvnvZ7wmM8zhUTTvKTdoxLOGE6RsYxX51TGPEFceN1QN4Kw6mMMW5MX7/x/CuvvNL15/WCmAfnIzEdyi5iOHXI5SM/aatcxCHusGXTLyhc8srLrHxy2UcUThrx+gjndG1eL6Wn+uA4r7RUP537whe+0PXHtlFYrC/X6RzpxXQKxbrrp37Ew0Vi/Jju888/3xMuJC+dg3gdjvMxjPo1gWsWmdiHoiM89kM52mgRoW6jIL8fRsGoyrZdxrUHyp9yMT2MWz48CWLt0VLctMAyUUxM7gtmqmDdw4o6zqUlj3ntYJbbedpl86dcjDHGGGNmBCtQZmKw92BjY+vdItNG/z6r299jzLhhzxp7/Ni/o71rxpj5wUt4pgfLx5jFwvd0O/ASXj1ewjPGGGOMmRGsQBljjDHGNMQKlDHGGGNMQ6xAGWOMMcY0xAqUMcYYY0xDrEAZY4wxxjTECpQxxhhjTEOsQBljjDHGNMQKlDHGGGNMQ6xAGWOMMcY0xAqUMcYYY0xDrEAZY4wxxjTECpQxxhhjTEOsQBljjDHGNMQKlDHGGGNMQ6xAGWOMMcY0xAqUMcYYY0xDrEAZY4wxxjTECpQxxhhjTEOsQBljjDHGNMQKlDHGGGNMQ6xAGWOMMcY0xAqUMcYYY0xDrEAZY4wxxjTECpQxxhhjTEOsQBljjDHGNOSxNwtKfyt47LHHSp8xxhhjJsE0VY0vf/nLnccff7w8Gh2tVKC+dO9z5ZExxhhjxsl7H//gQipQXsIzxhhjjGmIFShjjDHGmIZYgTLb5ut/9Y1kmq1zf/G5W2XM0XH+7MXOH//+nyY/v7/5qx9P/kUHWebyNcYYMz28B2oBQIn4yq2vJf+HP/qBzub97/Qcnzq3kvzj4pfed7Lz2hcvJT9K1crTZ8YmY6UvPn3rDzq79ry9PFpMqPONz35x7O1ojDHjgAc+74EyM8nv/dELSVF65rkTaZLNj8fN3v0/XfrGz7t/7l1JOZNbdOUJ/sNX/6OVJ2OMmTGsQJmxEZf4sFLFZSisZizBxTDiAxY0heG0FBjDYto40pKfZT5cPBdpEhdUVn6JE5cNY1o4QZpV8TmOZY/5KX5+DfQrY9W5XIZyN//89a6fNgF+5a+rjzHGmF6sQJmxgbXo4qdXk58lvp//4IHOC5/8rc47f+wdyUoGn//0XyZLEtayy5/8kxR25dJn0rHCL53/VArnGEiTtFm+A34/8uu/mOK+58DPJGsNDiscjnORJnFRTlgOvfA7lzsnnv3lVAaOpagQTv6EUy+Ff+ZTn++Jj9IkJUVLnNSD6zmHe/DNb6dw0tM1KEJfvf31dJ3OcY2USsoH8Rxl+Ma//7t0jAP5//Ob/7mnTUjnE//2X3eXYOvqY4wxphcrUGaifPzZ3y19W4qMFKlvP/hedzkOhUaKzNve+aPptwopDzsFRQWFpwrKgqKFwoXSBvijUqNy7y4UDkE48VGA4C1v+yddJUUKDOdJmyU6/DqfL0uiTB360PuSn3MoelIqKXc8R9k+u3Y9Kat5OhwTHvmbr/xtT7y6+hhjjOnFCpTZESgfP/WenyyP6tFSHRaoHMJJA2UlwjJWVLjE977z/XTNB55+fxnyEJQNLT/VKUURlDAsXyglw5IrdVouI+8I1puP/cpv9yglOXm45NQPyTsqZ6KfwplDPlK+InX1McYY8xArUGZHYD3JrRpVYOlAkaiCcM7n+3BYAqtSuLC+cM27/vmPlyEPwaLDOdwgpQgFAWVEVrBh+e63/r6r+FBmKUnkHcGKxvIYddGSWw7KCkqPlJZcTsoHpTGCdUjnWK6LDGs5Ih+WE2PZ+tXHGGPMQ6xAmW0jC8gw5NYliBulUWS+9c1vJz9LUChOWjLLOXv+Y6VvZ6AgDKP8gZbsgPJhucH6Rpm19CYI194hlBz2EqF0CZROQH4ocZTh333+S6k8VXJiWS5a4tg3JusbSmLduWEgbS0H1tXHGGPMo/g9UAsAioiWW5hQNTHr+PjJD3eePvBr3c3XoyDmWcf/9P9Z6fx//99b+5RQIk6e+mh3skdZwPKD1UWgNKFMoHywmRm4jkldv4K6xPdBoQjoGlmetITHubg5PKY/KC5I0VN9YxwsNiqXysh5iHWQUkJ9qbvSUpvQZrSRUFo6H+Wdl7HuXJ4m8n3r29/SlZvKpTqQ17lTn6isTy4TY4wZFsa9RXwPlBUosy00aVfJkiUhFKVRKmzThLr+7L53j0SJYCBZFLkYY8wwLKoC5SU8s21QBKrAiiTLjjHGGLOIWIEy24K9Pf2sKMP8M28eiO+B0r6m7aJN8iyhsd/IGGPM/OIlPGOMMcaMDS/hGWOMMcaYhBUoY4wxxpiGWIEyxhhjjGmIFShjjDHGmIa0chO5McYYYybHIm4ib6UC1bIqN8LyMWax8D3dDma5naddNv8LzxhjjDFmRrACNWHQxKuceOaZZ7phr7/+ehm62LzxxhvdOj/55JPp+MUXXyzPtpPDhw93Xn311fLIDAN9Rv0G+bXl/jFb7a0xJDr1AR0zvprhkVw9FlVjBWqCoBisrq4mUyZufX09hW9sbKRfzh84cKB7/qmnnkrhiwwD3NLSUpIFdb5x40Y6vnfvXhmjfTDIX79+vTwyw3LkyJHOmTNn0oAPbbh/zBZPPPFEd9zEwdraWuoD3E8Kv3jxYhpnzWC4jyTXo0ePlqEmYgVqgmxubnb27dtXHnU6J06cSDc5nRTOnz/fOXbsWKusL+fOnUtKpSY73bBt5sKFC53l5eXyyAxLnESvXbtWhpo2EPe3oDCtrKx0J/1Tp06lX+C+0nhr6sHyxLjMWGTqsQI1QVASpChwk7NcFTV7bnQG/0uXLrXC1MyTIJaWqFSKeOPK/I68QEt8CpeZnvMKk4No3icuTseYpuUnntLAH/MgT5yOcyU3npN77bXX0q/aGr+ui2UgL6F4yAVlGr/M54pPejgdq35cG+sKsX6SEyiMa+Ix6eoaxY9p5nKI4aDy46qIMpV7+eWXu37Ox/pQlniN0LHCojyibPO0VT7VO5ZXdRC57OSPecnRX3VOaZJflBXHUBVmdsbp06fTL22GlSmOH1KYOHf27NnkN/XQP+/evdu5efNm6qP0aVNDMWG3ilmo8vr6eirHxsZGGfIoS0tLfc+Pi0nKh/o1kUPxVPlm8QTZvU5hxZNS8oP8XIeccVwDa2trKT4QT37SI778UQZcSxqgOFBVbtJXXlzDMfkortod8nQ5H8vHeY5j2Ygfy6DrIJZH4bhYHl2b540/no/ypDyUA/hV+fHndY3pkobSy1H6sQ1ielCVj8rKdUojlk/nIcbpl7byj/EjnFc4acc6q37IWderHThfVQdRFTYuVI42QF3VHyK0I+cWWRajqpv6pu4l0pV/u0xb7rdv335zc3Nz5M4WqCmQL91VcfLkybTk12ZkEZCcsNBhmdFSDU/67BnT02cVWPxYzuEpCotOhCdVnrCKibAM6YX0tReJshQTY9dyAHfu3Em/VZCvrIvF4J3KTFgxMCVrBmXatWtXSot04datW6k+EdVdshDxughpK5zyUX7i7t+/P4Xr6VKW0OhX/dhLJNiTtnfv3uSnPshKlimhupKX0qJNlF8TiC/5AunKukNZSJ+0cbQPbZhDW7MXKiI5VKWNxSuPn4P1AhlWQRupD1a1NcT8m8rEDAftjvx130VoZ8YMoC1NPffv3+8cPHiwey8j00IBSX7TixWoCSMTf7zJ68z4TLCLDBMNE/LVq1fLkIcwqeVImRBM/igdMjEzWeXLgZqQUUxQWiMMDAyqVYoI1zBhMwkKykp8uaqBelgo86FDh1I6dQpcFVJy8uvw49hTFsNVRzlkWFVf4DpkVNUegr47LLEcw4CSIZlEKDNhnGPyw6l9qF8EJYe2Xl1dLUO2oB0lA0F/IR2WdfL4EZQr+lnxFF6GNEf5I1/1VzM66BP50l3VuNqvnc0We/bs6fkTD/vLCDOPYgVqgjBgc5PHDa5M8Pk/zhSWKwyLyOXLl9MEFa0aTDBMaqq/BkLiMGEyWCo+k6We6HlK0lOTwArDNU2VHSa7KH/59fRK/vIPQuXjVxYfJn9chLowUUd0rfJHKYlKgCBdwmPfwnJEf1MayBE/k7nKznGsB3JiD56uQWmJE360WOWQruJyPcpW3oeRW9WeN+B60o/EvCkLT8fIqM6Ci5IzbFvTX5hQ6+ojiBMn5n5Ibvz2k5UZLViXcwWXPTw5hMmiaqrh/onjBuOBZVZDMei2imlWmbyrXDFAp30TOi4myfKKyUP+k4b1ddUdV0yO5ZmHe5JwUS7FZNsN5/p4HF1+Pb+FQtUNIy/5SUNx8Md4pBPLmbdRzIf2FPiVJo40IKat81BVD8lDx1wb40XycPLXMddBLKvixTiSifKN5efaurqCwnE5UdbRvfTSS11/lJdkrHM4iOnEuAqL5/ulnbcnv6ozxHSiP7adZApVbZ3LWuHy5/IbB+SzyFTdMzjCIYbp/ltEqN+oiH003hPbZZRl2w7j2gPlT7mYHuZVPiz55X9dx3oxrOVgXGD1wZrYtBzUh71yO1kmnDVk6Yp1wiL14MGDhajndtt63HjMawez3M7TLps/5WJMH3LlCWZtIms7KEm5osQS1yIpicaY9mAFypgxgXWF/V3sJxh2vxRgyWBDNfs6mlxnpsd229oYM794Cc/0YPkYs1j4nm4HXsKrx0t4xhhjjDEzghUoY4wxxpiGWIEyxhhjjGmIFShjjDHGmIZYgTLGGGOMaYgVKGOMMcaYhliBMsYYY4xpiBUoY4wxxpiGWIEyxhhjjGmIFShjjDHGmIZYgTLGGGOMaYgVKGOMMcaYhliBMsYYY4xpiBUoY4wxxpiGWIEyxhhjjGmIFShjjDHGmIZYgTLGGGOMaYgVKGOMMcaYhliBMsYYY4xpiBUoY4wxxpiGWIEyxhhjjGmIFShjjDHGmIZYgTLGGGOMaYgVKGOMMcaYhliBMsYYY4xpiBUoY4wxxpiGPPZmQelvBY899ljpM8YYY8wkmKaq8eUvf7nz+OOPl0ejo5UKVMuq3AjLx5jFwvd0O5jldp522calQHkJzxhjjDGmIVagJgyaeJWLvPjiiynsmWeeKUPmF+qQ13UR6jUvPPnkk5033ngjOfxmNnn99dc7hw8fTn7uf5zpdF599dVHxo+qMQTZIcN+cA9UpRXvC9JROPHbjuRBO5hHsQI1QbghV1dXkykTt76+nsI3NjbSL9BhL126lM5fuHChDJ1fqAN1Vr2p68WLF8c+QTAoaiDEtZWTJ092lpaWkjt37lwZamaNp556qnP37t3UV8+cOdM5ffp0eabd3L9/P40ZGjNXVlY6y8vLPWMjitP169fLo3o2Nzc7a2tr3bTwA3IH0jl79mz3/BNPPJHC2wp9ERkgi6NHj5ahJmIFaoJwA+/bt6886nROnDiRbmLdqFIqdEMvItSVQfDmzZtlyOjh6fTGjRvdgRDXVpiIJQMPgrMN933b+2sVGh9RcHj4unbtWjoWV65cSUrVIB48eNDZu3dvedTpHDt2rPsQCzxg7N+/39aWAh7keehdhIf4cWIFaoLwlIkDJnmsJHFSw/LEYIHmv8jLLQyCBw8eTH5ZiHDAIKklTJyWnvArPMomWppkcmezIBaXPC4orsLJT2Fyr732WtdPnsqX9OOSQtVSZDyH03GsE44BSubxeE7EcimfmB6O60U8x7Wg47wsEeWtPEB1VFh+rcqNDPPrdQ5HOWI9ouyIp7bDH2Xw8ssvd/1cr7ixHHm6gjZSOGnGskZiHOC8nMLz62L5dV2sL44y5mVQmkorpkM98mP5JdM2Ey1xKDeyGgnke+rUqfKoP4y1UsZoNx7kNB4DygLKK4qV2reN0H9R5nnIdT8cQNFhWsUsVLl46knl2NjYKEPeTP5i0n+zGCDScfFE9WbxBJD8k2Qc8qEepCtH3RSuOhaDWao7skEOQDzCkA3XKa7khOM6UFqSreC84nCdZE6YZEyYrpeftGM5RUwj5iNi+SHGV31AZSIN+WN58jRUBvzkAcqfczof+1a/skTIP5eZ6k55lTa/saz4YxuQX7xO4fG6WDf8MV+uVd2Iz3UcKwxi/TmvskVi20HMIyI5gdpFZVK65Me5WDcgjq5ROrFudWUgjsJJU/FVX8jz2inKe55BPrlMkKVkxrnYT/pB2wySyTzKbFRlVt+VPEl3WNnWMW153r59+83Nzc2RO1ugpkC+dAdFY6QnVFmkiDPOZa5JUwx03EHJyQTP0yWOemOVgrgXhP0I0UKnp1FM7bdu3UrneGrkaZJ9I6K4+UtfJz2dspwn65RkTjj7JkgztgN+5cN5yqFjoGy0FeGDIE4xyJdHvUTTuJ6gqS9tfufOnc6hQ4dSGFDf2Bd4EidtZAmc09Iw8qP+pBHpVxYoJqhkCUFO8e++yBnZcj2/yBJoQ/yXL1/u1oW8CeeJlaf4CO1LGoXCUIb0Qh/I97GQH3WPVgJBHrHNq5AlqA765NWrV5OfvTaRvK8VA3DXagpcS7igXrRZXH5X/4lloF0UTjvSJuqbQBsQbh6CVa5q6Y62i/fmsORLd1VwP8R2aRPcC/R13XfIgv5vHsUK1IRh4I+KEmAu3rVrV8/gu3v37p6JfRHR0gUTMTdpBOWAyaufKV3LHSgeTGhNGEa2KCKkSzkFyhrlkvJSBZMi5SJOncLQBPpChMGftMkDGeTEug1bluPHjydliAk+7tMDlH2ux8U+CigDKoMUlgMHDjyy1EL7cn2VEsc19IGo+ILaNJ/IUDDIo1+bUy4UGvKs48iRI2nZnPLndR7Enj17St8W1Is6UBeVl/pIbhHJQk7thUKIUjZocm8b+dId8uWelGKPo72JF+/VKqqW7urGmEUff+ugb9+7d6882toSkfd3s4UVqAlS9STFYEBn5WZFsdIAwMZIJolFhskit8QxmGkC4iko3sgKZ6JnwuepiEk0Dob4meQlRxQC/ommPDRY0ha50lYFT7jRmsJAnT8J56Co5JNmP7BoAW2O5ZGNrvQTKSbUk/AcJmg2xiKneJ6JXAr6sGWR3HJLDH0QBVVoPwR9lfhM9kxctA2yRqbx4WAYohKRQ975HgzyHJQHssmVvRzdc8g99iHI+xoKFhO2wum7hEdID3mrPatQ2yqd2N/py9602wttn/cpLE88VEgBxdHeg/oFYwJ9IspY91iEsHG8dHFeQIaxj/KQETffm0DR+VrFNKtM3lWuGDjLGA/jFINGGTJZyHuUUI+6OhXKU/dcMfGk32IQ7PpxxZN9cjGO0iGu4ukcacbwYmBNcUHpKL6I5SDtGI+2weEnXdLTOdKI6YDOkU6MqzRwpC84VtljWfMyAb8Kw8W8Y16UE3SclyWichEHf5Sd8o3XUi4dEzeW6Qtf+ELXrzrF87FOpBHrHeO99NJLXX+UeV1a+EXedsojyirCtaon1PU1iG2IH6JscBwPKkNMh/TzusRzo4C05pEoi9zFewiQu/q9+kkktknuyCf2e9KaRyj7qIjyQD47ZZRl2w7j2gPlT7mYHmZRPjwJFZPPQrYb8i4G91oLjBkvskDIArWIfa2NYx7WJqwmbbqvZrmdp102f8rFGGNGDMuj+fKdmW9YFmWJ1Q8lZtxYgTIzj/6RxgbQRUL1if+4M5OBvTU8FeebYxe1r7UJ9i16L5mZBF7CMz1YPsYsFr6n28Est/O0y+YlPGOMMcaYGcEKlDHGGGNMQ6xAGWOMMcY0xAqUMcYYY0xDrEAZY4wxxjTECpQxxhhjTEOsQBljjDHGNMQKlDHGGGNMQ6xAGWOMMcY0xAqUMcYYY0xDrEAZY4wxxjTECpQxxhhjTEOsQBljjDHGNMQKlDHGGGNMQ6xAGWOMMcY0xAqUMcYYY0xDrEAZY4wxxjTECpQxxhhjTEOsQBljjDHGNMQKlDHGGGNMQ6xAGWOMMcY0xAqUMcYYY0xDrEAZY4wxxjTECpQxxhhjTEOsQBljjDHGNMQKlDHGGGNMQ6xAGWOMMcY05LE3C0p/K3jsscdKnzHGGGMmwTRVjS9/+cudxx9/vDwaHa1UoFpW5UZYPsYsFr6n28Est/O0yzYuBcpLeMYYY4wxDbECNWHQxKscHD58uCfs1VdfTeGLxIsvvthTRxz1NuPh9ddf7zz55JPlUX/eeOONblz63jPPPJP8xkwL+mE+XuDUN+mzChs0jsS40eX3B2kTzljVdpCB5VCPFagJwg28urqaTJm49fX1FL6xsZHOnT17tntubW0tnVs0Tp8+neq2srLSrev169fHPllrUJRDsVh06FP79+8vjwbzxBNPpMkE+Rw7dqxz6tSp8owx0+H+/ftpfNRYwbixvLzcuXDhQjp/9erV7rlr166lsDo2NzfT2KP4GmPv3r2bfoH+z33DecaqtnPmzJnSZ6qwAjVBuIH37dtXHnU6J06cSDcxExfuqaeeKs90Ordu3eocPXq0PFpsUCpv3LhRHo0enmIPHDjQHThxUdaLCn1KSvqwMAlJRlxvzLRRP+Sh5+LFi11FCUWHCR6FfxgePHjQ2bt3b3nUSQ8J8f7gIevQoUMDFbG2gDwYm009VqAmCJO2Jm46J087bVGS+nHp0qU0cIEsIDgGSFxc9mMQ1VJnDBdxGTRambDuKZw0RcwPOKdjubiMQLvpmPRxOle1hKDykE9M54UXXuj68/RjmRQGsb5RLrl8QGligeIJHj/piphnXg/OqQyqE2WI8fMwronE9KJTejF/yg9Vsid+lKGo6hcQ85XcYjlxKgPEcIhpxvBYNpU31iGeq6pHJC+3/ErXPCRagejLuWUeRZ8w5Ifc+8FYK2WMPoA1Kz5IoZwBacU+0kbolzx0mgEUHbBVzEKVi6eeVI5iYitDeuF8ofmXR5NlEvIpBryUj9zS0lI3vBjUkp/645CRysQ5yYUwxV1eXk7hyA0/xLSIyzkgXPkRV+FcTzjnCYvX80uYrlMZIKbB+ao2JX+FkxZpy6+0SIO0iEcYv8pP+as8XK968hvLpXCVJZZbeROueHm9lEfMP8pCceJ5lT2nLr08PvKRTPjlPPHV7hBlCPE8eeQyA/yEy0+6oOs4p/OkEetJ+Yiv8sR0Y1kUn3iqU0w35hshbqyz0hkHUY7zCvKp6mOiiQyJm8uENoptQrvJPy+Msp0ly9iXd8K0++Dt27ff3NzcHLmzBWoKxKW7KorG7hw5cqQ8WkyKG5Q7KjntQeAJkb0NPP1p7R0ZEQfrA09E8YlUe3SwLt28eTM9TWJ+x+KAeT6iJ01Z/HhaZe+Vwkm3mBSTiT8+lYL2W3Cep9PYNuS3a9euFM75flAvPeUKLUForxL1zfdekD99gmuJS90ouzh37lz65TrC9SSe9y/kx9LwnTt3UjzlS7nj0ztPn8UEUh5tLScfP348+cmD8pA27YbVpMk+K6AuBw8eLI+2lnDJYxCUiTKTZ1W/oF6yZAJyoV8Iysn1XAdcgyMNtYvaWtBfaF+1PQ7Iqw7SBOIO6hPUJe+rphf6Y1y6q4J2GmSBEvnSHbC8R5/S+HDy5Mmh+uQigmXV+x+HwwrUhGFyZ8DWjQq56f7evXuPTH5tQMsZKERMqhEmawY0LctUwQDK9UyoKKhNiUpDFZwnXTauCsrDpM2k3O96zlEvFMcI9eTafECvQnHldkJUYHHqb0xUKB75xM8EkyNlYpiy92PPnj2lbwsUliooE2VF6dRk2a9f7N69u/RtQTm5nnLT17QEx/67vF1yaL8oL92/de+W4R6mr/TrE1KcttNX20S+dEfb50vGMMyYWbV0x/hLX4kKGH1yHO8NmgcuX76c+i33Bvcart+422asQE2QqicpbloGWxFv4raBZQIlIQ5uDJTIDVCMonw2NzfT75UrV5JVD6sAg2NUToEwDQBcjwLLYLu8vFwZ3g/SZs+WysHkO8wGeCb/3LLVBP58IKscxAGNfyoBsqKuqkPel1A0kCFWNvqhzjOByM/1+ZM+1zCoCuLTJshP1pYmqC7Kk3Jh4Wqy7+TP//zPH+kXqpfC6U/0ixzKjUJIvkzMg9pc5zVpk/7LL79cO6lQFvpE3g9zyHs78msTyDi/p3mAyZVj4g2ymtB+KNzRyqi+wr3JOR3T3+MfftoE978eFBiPcbll1pQUQmoV06wyeVe5ooOWMR7uAZkWlGecUFfVO9/TQL11rngCSr/Ig3gKl2xiHKVTKCndeDon2SocF6kKj+VQ2jouBvPuHgp+OdY55RlR2TkX6/788893/UoPR3qgY5yIealepK98Y9xYBzniiVgW0o3xY3lUf9VD50HHyl9lh0HpxfxVF9JRGZUm8WPeMX4MV7+okmWUG055xLjKj3RifNU11oe46mvEjf1O13JdTCcS6x7LoHqNmjz/eSHKJnfIvKqdQOGR2Ea507UxzrjaYpxQ7lGDHEYhi3GUrQnFw1TlHqadOn/KxfQwL/KhnMWAN9B6sOhgtcHKUmft4Ima8zxdm3bSxjEPaxMWyTaND7PcztMumz/lYowxxgyAJWaWZ9v+cGXGjy1Qpod5kA9WF/5FtrS01GrLChOF9kXVWeNoT2i7rNqMx7x2MMvtPO2yjcsCZQXK9GD5GLNY+J5uB1ag6vESnjHGGGPMjGAFyhhjjDGmIVagjDHGGGMaYgXKGGOMMaYhVqCMqYG3G/OPPzZA6i3U/HIcHf+GA8XljebA9fE84I9hxOVYb+GOaSgujjcByy+ntybrGhxvwcbFeDjFFSqbyqq8XnjhhZ7r5D760Y+mX/JSfqQBMb+87nKq33bkh4vXxTISnstQ5+QonzHGjJw3W0YLq9wIy+chvH1ab7jW26eBNx0DbzCOb9bWG405r7f3cp5rBce6nl+lT7iupw1iXoSTHmF6M7D8Og/8qv3wx7LhcmI5SU9lieGEKR2lTxjxVc5YBuJGmckf+xXxIS+j0oj5xzQIUzi/SocySMakofAo0zYTZW8Wl1lu52mXbVxvIrcFypga+D4W31PDilFM0n2/wM9X//k4LHH5HhvHwLuZsJBgAcIdPHgwhQPfS+NDqVzDe614+Z8oFIJuWsA30+J7nvATRhq8cRl4GznXydpEmqQBVd9c49thfNcP+L7YMN/qK5SSFI/8C0UlyQTrGHmrHhHVrxjDypBq6uQHSiN+C1BQV+osKAffxqsqizHGjBIrUMb0AcWDyR9lQdS9T2S9/No/Ln6Ql0+p8MFjPmDLV94jKGa6Jn6wU+Ex32HQ8heg7JAGaHkrEpW7naDlP/Iiz4hkwnnl01R+Cl9dXS1DtkDROnfuXJJVhI8rEzcvizHGjBIrUMYMAZM1lh7t+8nBssRkLmI8rCKyJEUOHTrUOX/+fHnUe82wkEa8jreN55Ykvipf9xZylDvKPeyX52M61Im6YS1CyekHyszXvva1bcmvDpTLqGgJLFVVFjdjjBkpxZNdq2hhlRth+WzBvhpkIVcoCN0w9tjE89qXwz6cGJ94Oo+fsPwaHeNIs1A0kp+0iKNzXMt+Hh2Tnoj5kkZedly/vUCcFzGPPD+OY15KM5ZT5z/ykY90wxS+XfnhYlmef/75yvADBw6kX9KLZSKvNoMMzOIzy+087bKNaw+UP+VierB82gdLcMNYbPjH2+XLlyutPmZ28T3dDma5naddNn/KxRgzctiXNOzynTHGmIe00gJljDHGmMmxiBaoVipQX7r3ufLIGGOMMePkvY9/0Et4xhhjjDHGCpQxxhhjTGO8hDcnbN7/TufpA79WHnU67znwM52f3ffuzoXfuVyGdDovfPK3Op//9F92vnLra2VIp/PpW3/Q2bXn7eXR6Pjj3//TnrxzvExqjDEGvIRnpgpKEErJO3/sHUlR+r0/eqHzkV//xc7FT2+9nZlzP//BAyn8medOJAWLsHEoT4K8yYPyUC78OPJG4TPGGGMWFStQZtu8++feVfp6+cDT7y99xhhjzGLiJbw545fed7Jz8tRHk7UJvv5X3+isPH2mp04sr3319teTNWoS/MXnbnUunf9U57Uvbn2YNvKbv/rx7pIiliqVm2s+/uzvJj8WK8patSzIOaxon/nU59Mx1jXqFtME8kcuSjMuXVbllS+Jgs5BXhbkm6cTl1A//NEPdO6s/3XnW9/8djrGOke7CJWH9otxciX0/NmLfesq+UWq0ozp5JAO8tI1gnDVD/I66DzWxtjWkhXhe/f/dN/y/81X/jbJnrAo71hepR/bAPlCTDu2T15W2kv3RqROhsaY8eElPGMawgSINYrJjAlOkzMTGxM44SgWTKaEAWFxCRIl5dS5lTSB4li2ZNLlPPHe+va3pHRRBpicuYZ4H/uV307pSbkjHPegiIdShzJD3sCvzhEfmJwVzoROXZh4mYA5pgyURWWljEz6nCMOSgzXAnUnP5SEs+c/lsKJc+7UJ9L5SL+61ilPKI5KE4UBWcZ0OIdTOu/65z/evUblxf/db/19+gUpYlFG5M/1oPYClCQpPYPKjwJ04tlfTvmo3VGoCCcMR1vSDrl887T7lRWQL9cTr58MjTFmO1iBMmPjs2vXk3LD04csAUyYNz77xc6Hjm19KR/FggmOCZBJMacqjMlVVg2uk1LDBAvHT344TcJMzGyqV16AAsO1VXu0uAaFDCiTLFi7i7S3AwpTBCUBOSAPKX1V5YjEuuYgS9KQUsAvigLy7Qf1qlIkqmSd1wGQp/KgDJJTFXn51daq91ve9k+6fUDQltshLyvt9u0H3yuPjDFmtFiBMmODyR3rAJOjnCbPt73zR8tYzcB6hKUJRaGOOKFjVYp5MWHnsJSHUoPlgvIJykl4rsBQL8JxcRkpwrmfes9PlkdbaQF5RHn0Uz4G1fV73/n+I8pGv/SaQNrUoWo/27/4wHuTMkid/sNX/2NPPSN15ceah4Uwrz/KGHki3ybUlRXr1zt2vzWdq1NCjTFmu1iBMmODyZ3JLYdJk4m1KVr+kaWpDikr5IMVoiqvOHFLqWFSlxWDpTFN8rkCQL2kAGlJK4J1iXPRyqP8vv/dH6TfQQxTV6xlVVYslIadomVPlvuqoN7/7vNfKo8epV/5sXR94t/+66TYaMkU/+VP/knKs6kFql9ZsYLSvv0UbmOM2Q5WoMzYYEOx9j0BkyVWBiwWsmAAv1glBsHel2ghikRFgomduIBVgrzIF+K5HJQt0tDSWNWm+GFgSbEKJvG474k658qP6FdXwXmUjbh0RV2xEO0Uljr7QR5Y3+ryqio/clU7o1BSdvZd0S/wYzHaDnVlJS+WG6OybIwxo8L/wpsTmGi3+yJNlAZtih71ZBL/ZQd5HvE8ZdYkyeQWy642qQpHQUAxACwfdf/CAxQfJuOqf4mBypDLU6j88Z9tpKd0FZbLH4Wh6b/wuCa30Ayqa9XeJaw3Qhuqh0mnqix5WrEOXCeFmHZBrv/Vz/5ENw7yGfQvPBQmySy2U8y3St6RYcpK+zworiX92AfrZGiMGR/cq4v4LzwrUGbuwYKBArVdi5GZL1DcoGrTuzFm9lhUBcpLeMaYucKKkzFmFrACZeYa9tXolQAsSZl2YCXKGDNtvIRnjDHGmLHhJTxjjDHGGJOwAmWMMcYY0xArUMYYY4wxDbECZYwxxhjTECtQxhhjjDENaeW/8IwxxhgzORbxX3itVKBaVuVGWD7GLBa+p9vBLLfztMvm1xgYY4wxxswIVqAmDJp4lYM33nije/zMM8+kMPMor776ao/sqlybePLJJzuvv/56eWTM4lB3r+fjo8IZQ+uI42t03D/Abwz3PdXpvPjii8mZaqxATRBu4NXV1WTKxK2vr6fwjY2N9MugsLa2ls7duHHDN3ANR48eTbJbXl7uylLyXFpaSv62cPjw4W7/MWbRuH//furfusdXVlbSfX/hwoV0njESZUfj5hNPPJHCq9jc3OzGw+GHu3fvpnQYc3WOcdp0OmfOnCl9pgorUBOEG3jfvn3lUadz4sSJdBPrpudG3rt3b/IfOnSo8+DBg+Q3po5r164lpdGYRUXjI0rOxYsXU58X+/fvTw9OPFQNgvFU4yscO3as+xD71FNP9Shf9+7dS2Fthgd6K5L9sQI1QbghdVPSOTEZxxsfpUmmaaxVwwwKphosMzyZYn6WSV7oqRUnefOrMBzXC6UlUz/k5n4cxLRZfsiP5SfNmG48xzVxuaHOhK7zPKEzkejavM5K+4UXXuiG52VRffCrzDEO8lF5dSx/XkeIcalLXh/lJ5lGeRIXYhpyL7/8ctdPvkJheTkh5s05iDKK4bEu6huRQfU2o+X06dOlb0tZktUIkDkWKfX9QW3AeColifbm2rYrSXXQtw8cOFAemVrebBmzUOXiqSeVo5j4ypCHLC0t1Z6bBPPSJZDh8vJyebQFYchPUJdikEx+4hZPU0muMQ5+wuUnDZAcOFcM2slPWooLVdcpbfKJaagcef6xrYmjvOriCNLM848yiXmC0q0rS15ekcsUv8qifCGWJ9aDX6WLP7ZZDFeZYjqgcK5TmoTFONCvnMoHSKcuzSgPwJ/nA3X1nlVi/ecV2if2HYhhtMew9Yx9sgrOq1/ME6NsZ90jo+rf0+6Dt2/ffnNzc3PkzhaoKZAv3QmelE+ePJnW+LFGmZ1z6tSp9Hv27NnOzZs3O3fu3OmR7blz51K40NNscc+lY85h6ieM5YMYN4entmISTnGLSbYbBlwbw3N4IiYO0A+UDg4od4RyxOVg4Gn6+vXryc+Tu9LjyTwuXfQrC+F5uoPAKhP3SrCXRPnx1E8+kgPli/UC4rCnBRkMu+eCeKQhCxZEmeEH8uV+EvQDypdD/oP6Rk5ebzMeaEP6bFy6A+4T2hPo+7Gf9SMu3VVx69atVlv/GS80bpr+WIGaMAy6DPrxBtUSDYM3Ex8DBf66pRszOnbv3l36tmBgRXliEtZgrDCcBnHOVSkaTNaKi9MSQfFEl441sUcY+JkIiCMIi+lsZ0AnPQZDNuJGZb1fWajrlStXyqPBoHBi6i+eUsuQR4lKTpSPQJbIGxnk6dS9u4V4pBHvkygz/FXs2rWr9A0m7xuRYeptRkO+dIfiRL+mT8d9ovSzQe1btXTncbaXy5cvp/uHe5IHBFzVcraxAjVRqp6kGAzYsAhMaMM8QZnh2dzcTL8oBVj+sIzQBpLz7du3U3gOEz2D88GDB5MlQmgg4bp8/4QsQEqbQX6Y9qTdY1pSdrgeSEN+QbkoQ4R40dpy/PjxNBju2bOnDBkM5aBPDlNuQOHKlTuUmjjg8ueIXFYR6oEiEuMwqQ1bhn6oTSQ/rExYeasYtm9AVb3N6KEfofBEWV+9ejUpt/RvWaDos/Sz3KofoQ8QR//gg7yPcTyOFy7OE8xPehDhvsRFmZlAIaRWMc0qk3eVKzpoOl8Myt2w4gkghU0a8p51tIchyimGqQ46z2+hWKQwiHGLwTmF8aswXJS/0sDRRqQV48pBTJt4sU3zc0qH9OkDOsc1w/SFWC45rosQp1DQkr9fWZRWLHMsU+6ivGJa+CGWjfxxOiZdnec3r2v85Vwsx0svvdT144gHOqZckisOYvqcg5im5AOxLuobkUH1nkUo3zwS5Zs7tVlVO6qNIrH/5S62HenF/jBPUJdRgzxwO2UcZWtC8TBUuYdpp86fcjE9LJJ8qEsxGPZ9Kt0OLAPk+zF4Up7WUxpLF1iaqqw8WHLiP5lGQVX9zezSxjEPaxMWxVHf+7PMLLfztMvmT7kYMyNUKQ+zaOJmWaPJ8t2wWHkyswwPDWwEb5PyZKaDLVCmh0WRD1YS9r4sLS2lfQ+LCpYv9u3A+vp6dw8T9V70upvh8JjXDmyBqmdcFigrUKYHy8eYxcL3dDuwAlWPl/CMMcYYY2YEK1DGGGOMMQ2xAmWMMcYY0xArUMYYY4wxDbECZRYKNivyXiT+nYaff+MJheHyYxzHxMfPX6EVLni3jML0BmP+8aawmJfSwREn5sW18usN2ZRZYZDHkZ90FRd/TJd8QMfEg3h9DK8ru8ivw+V5kL/I6xhlKJfLUH5dW9d2Ma0qmeGIAzEPla9OZs8991zXH8tDWvEYJ7kZY0zizZbRwio3Yt7lo7dO6+3C+AnjWG/U5VdvmeZN1pwHhXGN/Ly5Wm8n1lusia83YPOrNxdzHf749l7SkT/mFePo7d9AmNLGr3KQrsLxx3aK18fycK3KHMvBb1UaykvomF/kRx78Eld5qE6EK77KrWOVT2kQrrJwrDLip0zEA/x52io34bEOMZ0oA52vqi/XyK88Y178xrIozXkj1tssLrPcztMu27jeRG4LlFk4igm0++2sYqJO3zTjxXr6gj+/dV/kF/oaOd/a4ov8fEON90pxPR83LSbTzhe/+MVkldAL+4r7NPmJf+TIkRRGmvmbwLGAxK/4k67eIk5c0palh3c8kSd1ypFlhOtB16g81EHnIuRR3Pw9382jnrlM8peDUkbkqvdrkTdllXz5NhmQPtfm13NtfFs6liJkGalrOz7cC9StUGxSuKAcfK9QL/jk3VfUj/CcXGYRrE58qV9QfvKuSscYY6xAmdawtraWlBzcdl4wycSt63H/9J/+09p0mMCrGOYr/lFZUp4oKjkqR1SEIk3exDzoK/Y5yhsnBTF+GX8QKJAoJ+vr62XI8OTvc6EMKIBSdFimQ6EiPEdlzmUmxYk+EkEp3U4ZjTGLjxUos3BEZePSpUvJGoTSoi+3g/bG1CEF6MqVK+mL/PpSv6w82m8D7JXRL+7gwYPpOhHjMhnHL8sDk7nKQ/rRqtUEXaP8KAsKWBVYgrDCaD8RFraTJ08m/yAor/KgvPiRL9/jE7HOVaBA5hYqqGu7aBmKFj4hyxbloV5NPzeD4pRbCtWu0WpmjDFdiqexVtHCKjdi3uXDvpalpa0v+eO01waKib8brr0uOo5wrDS4RpCW4nMtkJ/CuEbEMhAn5kXe0Q86xkFMN8anPLFsMd1C+eju9cGpPPF60hUxj1jPSKyzZBnzwIlcvpDXO5Yl+olHeaLcYtvl6UCMiyMOxHIQR47jXGZnzpzp+mN5jh8/nn4pk9IjjXmEspvFZ5bbedplG9ceKH/KxfQw7/LBaoDFaCffgEMGWEK2YwUy22cUbWcexWNeO5jldp522fwpF2OMMcaYGaGVFihjjDHGTI5FtEB5Cc/0YPkYs1j4nm4Hs9zO0y6bl/CMMcYYY2YEK1ATBk28ygF/wdbxoL+BLzrxcxzR6a/lxhgjePdXv/FCn/Lx53iGg/lHMtSrW8yjWIGaIHTE1dXVZMrErZcv6NO7bw4dOpT8nOMdOG1WFnhXEvJZXl7ukRcvovQNbUaFJglPrvMN/5jVOIGDtbW19A4vlAHGVsL5bfvD6SA0viIv5qvz58+nY/MoVqAmyObmZmffvn3lUSf9ZZubnJufThtfoMiblOPLGM3WCw1RqHjpozE7BatFnHT9+oT5Je5v4aW0Kysr3RfW3rt3r/spIH45Nv3RS2WZr8axd2hRsAI1QVAA9FZjbnIUJt3kKFdxAN+9e7ctLRlY5HjLNG8Fxy/Lgd6mnYfFYxzyRu4xTF/8r1oy1JOqlgdkoYhpxOteeOGFnnDi41ce/czi8Vwsd3xajnlxveIpjvLDQV7XWP+qsuT1IlzHxFf6kkOeRixf9Md08cdjiHGpUxV53aKM8vTlj+XL86W8vDFex2ojiPWuazvKE6+BmH4sH/Uz40UTPrLmiwHxLffxTfZ8PkjfuTTVxPff8RCfv6HfBIonr1YxC1Xm7caUgzc6RwjjHPBWZL1ZeZLMUpeQnKKLMuNN1bmMYhi/emt1vJY3SkvOhAtdxzW8fRpIT2lwnmOIaRCm8Jg/+ent1cStSj9CmPLiV/Ej+bWxbPIrHV1PGSgLZVOZlAZxcHlZdT7PT/Kqqw9hkkVMB7/SB5UJVxdHcJ5zQNqKE2Ud6xvLU5cvcWI48VXu2CcIV7r4uQ5HGlWQZiyr0pwmsT6LDnWlfXJow7pzi8Io25n+TXq4UfThUZZtO4zrTeS2QE2BuHQXIYw9Pjy18sQks3ObKSYt7rzkips6fWg3PtHztKkn/Zx+X9OXnEm3H3x3jbYgLnlxLJQGH8bNwQJBWUVxA3fLSnpY0urA2hG//RbBYomlEisIeWCphBs3bnStmXwHDn/+rTmeJNXn9F1Ansa5lnDSJW/qFaGslBsn+tUHeRCepyM4R1sCy7FKn/iEU7cI52W5pQ5VcYYh5gvshxHIg7ZFpvQ5QTjyEdSVPpXfuzlYo6r6hRkfyLxQlLr3QU6hCKT2207faRv0b8ZGZMZ+XFONFagJw02O+T/e5ExaQJiUBR2bh3BTM0DGj9ZyrBsd2eYwWK5XfE2fMK5jUmXShLq1fsXFxY/UKpy8IygW7GGLkzUQT+ngqpDihDJdBx/9vXr1alJipFjATicGZAG5vKISG6mrj8LzdJAHeXAuKpdqQ7lBykm8dhjq8h2GXbt2lb4taJeoUFWBIsjDT94vzPioWrrTuMq4cPz48aR8035V44Spxst3/bECNUGYqLnJ4yTMpJdvamSwzycfsyUr5DdoghVSjKKSkYNy8LWvfa12UGWfDMqQGGbwRSGIbQxsxowWibp0GOAHDVpHjhxJT4V79uwpQ7asKShVQpNHHQ8ePEi/XINCJsvLsAPmsPWJoLygxETYz0abSvmj3LkiSLmUPud4ABm2D0BVvjyckK/6CMoolmH6ChYvWTmxkCGfCP2hX325d/3wM1l48MjHTFmL6TO0r2kO90e01JqMYmBpFdOsMnlXueJJtWfNeZpMO39RKBJdeURXTKbpfDFYPnIuhj377LPdMK7BX0yk3b0QcoRJ9pyL7UC7AHEURnoxjVjO559/vjJcZY7XKW3Bsc7Fa/N4gjQpS0TX4KgHqO44xac+qhO/QvF07iMf+Ug3jHLk1+T1ieWO/hgPfywTxLpzvgqd1zWxretcnm6eb15GEdNW28W0kC0yiLKDWM9cFtOEMiwysV2jU9tBDNe9sWhQt1EQ+3qU4U4YVdm2S6FAV+5h2qnzp1xMD5bPfIClZrvmdSw4LIP2s8yZxcH3dDuY5Xaedtn8KRdjjDHGmBnBFijTg+Uz29A+sN02Yu8Oe3/A7dwOfE+3g1lu52mXbVwWKCtQpgfLx5jFwvd0O7ACVY+X8IwxxhhjZgQrUMYYY4wxDbECZYzpwvuPMLfz7hx+9Z4kY4wxvXgPlOnB8jFmsfA93Q5muZ2nXTbvgTKmRfClfwYd3tnEO5/w47AIyTqE0xvHCVeYnN6WHa/XG7ZjHPnJE2IYxOtjOOiYcoIsWNEZY8wiYgXKmBlEn4Lhu2u8MHNlZSV95oWXX/JpBZ7mcHxOBYWKcM5vbGykT1osLS2l74Kh0PCpIOJyjk9eoGzFOITjJ0/i86RG/NXVre8L6vrl5eV0HfmQBkoT13KOMqGA8QkTysq1usbLgMaYRcQKlDEzDIoNVhy9uwllCaUlWnf4Xlsdt27dSh+2BX2MOf8uWPyGHvFRykibXxS4+IFWQEnSR3b1TbpTp06lb8gJpXH27Fm/8dwYs5BYgTJmhpGFB8VHoFQRJqcP196/f3/gR3a1DwAFSIpY/jFrLExK++7du2Vof/J8ZYHiw7taZjTGmEXCCpQxc4QUFe1lYnlM/iqwPrFsJ/hC/ZEjR1I6UpKwHgniYzUS2keVo3LEPVhRyRMHDx58REEzxphFwP/CMz1YPrMB+4lYEsPadPLkybQkBuxBgv3796dfzrPMxm8OCg3LbyhBWgLEuiSLlaDNgf1K7INS3qD4VWmwnKh8+cVahTIXFTbA0jXIMmbGh+/pdjDL7TztsvlTLiPCg0l/LJ/5A0Xm/Pnzj+xVQunJw0z78D3dDqxA1WMFakR4MOmP5WPMYuF7uh1YgarHCtSIoCGNMcYYMzmsQC0AKFBfuve58sgYY4wx4+S9j39wIRUo/wvPGGOMMaYhVqCMMcYYYxpiBWpO+KX3nUxmULk//v0/7Tn+i8/dKmN2OufPXuyGf/2vvlGGjpa8PDjCjDHGmDbgPVBzBIoRnDq39cJClKaPP/u7nRc++Vudn//g1uc6BHEPfeh9nXf/3LvKkNGDEvfV21/v/N4fvZCOUaLe+WPv6Lz2xUvp2BhjjGFu8B4oM1OgNKGwfPdbf1+GPOQdu986VuWpimeeO9H51je/3dm8/50yxBhjjFlMrEDNOR86ttz57NrDj7gCCszb3vmj5dHkyPOMy4yynkHV8t9v/urHk9Mx1rUYj6VI0lAcfnOIo/hcSxo6zuPHuLmLcWN4VAxjWeW0hBmXUKMTMUxpIivSjDIDlZM08/qB/DFP0lBc/BBlGdvCGGPM9rACNef8iw+8N1l9mDDFv/v8lx5Z0psELCdiEdu15+2pPN9+8L20XIr7zKc+3y0jS3wf/ugHUjjLj1zDMiDuPQd+JlmyKD/xOEccrGmkceLZX07XfeXW13rqDMS5+OnV5Oda0ojpR2JclTGPi7JBHM5RpqcP/FpX4SEOYZyLeQJLrDr36Vt/kML0i5KEX2mizKDoXfidy6lOwDnkQFzKyfFPvecnO2952z9JZQTyQjniHH7yRKa4j/z6L3b+w1f/YzqHn/R3F/XimLIiR1sJjTFmZ1iBmnNQVpg0L3/yT8qQTlJcJgWTviwbICXixme/mCbqeI5JvQkoCCiHAgUAhUKTPwrFIFDqtgNKB8oU+QGKCMcop9uFciMvFDFkIqUJRQ9lCqWJfABFUQoVEOfKpc903vr2t5Qh9e2MYhmtgVwrpXAYmRljjBmMFagFgM3iTLZM0EyeWCsmBZM+io2coCyywshJORgGLVGhtERQqj72K7+d0kN5rEPLd7LYNIV9ZVhtIvlxU77/3R+k3ygTXBVVig7tuvL01keFqdvxkx9O/ghK67lTn0hKUw6yQ3kzxhizc6xALQBYSWQdwfJTNXlOGpSbfpYwNrnXgWXmE//2X1cqXIRxDgUCJamOv/nK39YqJ8OABSdagIQsOyiITfeZSSmSBa0fKFtReWSpjzrFZUeUoXwZE2vkyVMf7Vr9gDg61lKiMcaYnWEFakGo2kw+TbCWxH1PKA1YQLAs5ZN+Dpar3LrENVwPnEO5qPr3odCrHraLlFBtuKb8Wm4DwusUVc6xNy1H5VaaEP1RYUMRpk2BvJFlbnFCTnHpVlAu8pG8SEt7o4wxxowGvwdqTkDxyPcDRZhksUhgodC+HcFEilUH60O/Za8mDCoPKF9BHDZGoyhQlm/8+7/r7lFiKRCkRLD0dun8p7p5UC/2UCk9FATttxIoWVri4jyWmJh+3Eg+TFzJVEh+ed0F6bDMV2W5AskoWodQglBskBXv1NK1KgNWNsrFMfuiYpmpv9I69Av/TefGn30h+Unzv/rZn0hxiXf2/Md6rlPZR9kfjDGmDsapRXwPlBUoYxqCAoVSEhVVlC32ZqFAfeDp9z9inWIA6dfvpEBFJc8YYxaBRVWgvIRnTEP27v/pR6x8WHJYcuO3amkPq5AxxpjFwRYoY6aMlukgX2o0xph5x0t4C4IVKGOMMWZyeAnPGGOMMcYkrEAZY4wxxjTECpQxxhhjTENauQfKGGOMMZNjEfdAtVKBalmVG2H5GLNY+J5uB7PcztMumzeRG2OMMcbMCFagJgDad5UTr776aufJJ58sjx5CGPE4P4uofHXuxRdfLGMaY8z4OHz4cOUY9Prrr6fzGquIZ4aHMdzjeD1WoMbMG2+80VldXU3mS9z6+noK39jYSL8oR8eOHUv+yDPPPNM5d+5cuubs2bMpnVnj7t27neXl5VQn1Q9H2NraWuf06dNlTGOMGR9PPPFEzxgEjEFPPfVUz1hKPCsEw3PmzNY3NE01VqDGzObmZmffvn3lUadz4sSJdGNzI8PRo0e7SlXk4sWL6Rxw81+9ejX5jTHG9BL3t6AwraysdMfPGzdudP2nTp3qXLrU+xFyUw1y5OHf1GMFaszwBIQDOiSmZN3MdWB2xoojdu/e3bl582Z5NH9E87osaVjeFCbHk2EeJhN8VRoxHk5PljEdLX/my43EIZ14rOsIj2ngz9E52lR1UVkBv+LI5emqHjHsueee6/qjIx/5SVtlJxxy+eiYeituTFtywZ8va8Tljn5l47zKlddrUD0VBjE8yo1woTqQp+qmuuscjrID1ypdhSlOzFt1JSymw7XxOMo/90MMg1in2NejDImjuqiMMW7sTxDPyZktZO1GRjx8XrhwIR0D1n61OQ+usv6beuh7Bw48+k1Pk/Fmy5hWldfX11Pexc1bhjyEc0tLS+XR1nGhQJVHjx6Pk6byoVyUL0LY2tpa8hdPgl0/vzH94ukm/RKu+kVZICviVKVBPPxRNorHL3C94soP8ZqYt8oDist1sW1ELGe8LqKyQ6xDlI+IYdHPr9KIeYLikI/KQFz5qYNkKKIcIC8H5HEoD3nLr2tULspEOBCm8BhXVIVBDOdXaUQIp1yxPfklrq4lHc5H2Sue5Cd56Fh1i7LVNaSruhEv+hWfOEoz5ltXp5gmSNbkV5V+hDSUF3FV9n4o/TZAXSVzgZwkM2RcJddFYJTtrL6K3CS7nTDtPnj79u03Nzc3R+5sgZoQ+dJdW8B8vnfv3uTH8lYMXo88WdeBrHiyrEpD/ghPnbdu3eo+OXF9MRB0ipsnHQNP7SyJXrt2rQzpdK5fv57C456t4p5LT7PKq4piME7XHTlypAx5FJ6GiUOZYnnZ90Y4FohhwZKJpUIWKIF1UmVABrEelH/Pnj3l0UOZUDe4f/9++q2D/JBPFfEpn316wBIJ7SWa1hOrTNWeQFFMhkkOqsedO3dSOZAt+aisyOD48eMpjLbUfXfy5MnuEs6DBw+6lh/kqfbEAWkPA32OvSJcx29V/avqJAuXID/1xf379/dYTiLKC5nLum0eXboT9A/JjPvh0KFD5RlTBWMD97EZjBWoCcCNzUAdb2wmijoYFOOkhQJw8ODB8mi+0YS1E5qkkb/7g8mUiSdOXEzKxVNWV6kA8mBiZBKrg8EYpbjf/jQGdPIkLS33ANcRDjHfQaCIX7lyJeUZ+1PxNFT6ellfX+9cvny5PNoCxYIw8u2n/CEjlAHks12a1FNKBtc0Qctl5BPLyn1EGOektKNM0rZVSjztSXy5fCLuh+qJ488VQuF5nbi/mcg5F1F/kZPiF6Gvco4HgX7jSJugb+VLd5INMpQ86R/0f1MPYwP3AvcNiicujl3mIVagxgwDNTd2tHjwVHnv3r3yqJpoJeCJud9EN8swScSbj8mFiQ0ZRMtIP+rSqAJLT3zaj9YZoWvj0z0WC12n8DgY18EkS/tUWQoilGtQnGEgP/pTlB3KNUqViJPqrl270gQSlRfqjwyxPlVN0KJuAq8Caw6g2GHl2Q4oGdF6VkVUTpAD8qCNURQjsb8waap8gBKKhScqSKqn5MR9O0jhE7StLHAwzGRDmWJdACsrdVI/oR379RnafdA40ha4d/M+kO8bxQqKzOrGDrMFc5UUTpR13DBjYSsphNQqJl1l8qtyWldmD4PCCq0/hQmFFxNLGTJ+yG9YKG9exhimOsYw9iDEOkdHfPkLBTJdK/I0gF+FRdlxrcKryoUjTryevJU/5VN8/RYTXkpH6DrSIQ/8sZ2q6khYrCOOdGNY8bTX9StdHHGE8ozE+pEP6eInXPWMMlV9q4h1jrKMZVMbAPF1Db8wqJ7x+hheV2fgnPJRXIjX63yUv8qkY/KmXrFuhOXXSG79nGQqeeMoV12dogyJo/KqjPG62F4Q05GLcqyDeItMlH10hEPsE4sMdRw19EfcThlH2Zowrj1Q/pSL6WES8uHpnmXJaG3gSRvrxSALhNmyTOxUTlhXsHgMa2HqB0timP3H/WRPmcknWnOnDdamWX8695jXDma5naddNn/KxSwMTLS5AsBEbuVpcgxavjPD4aUNY9qLFShj5gQsPTzJ7WQ/nN47FF/uuhOwwGxsbKQ9ReMECyX7XNh87Y3TxphZwEt4pgfLx5jFwvd0O5jldp522byEZ4wxxhgzI1iBMsYYY4xpiBUoY8YAe3YwW8s1eeO4McaY2ccKlDFjgM3VrPnLzdJf740xxuwcK1DG1MD7qrAexU/HyLKkMN5NJCuT/h3GdbzxWOF6MzW/ClPaONLgWh3LvfDCC11/fCu2/klHGeJ1/KU+jx/z+Y3f+I2e8/JHhqmz8scRP+YhB7Fskg0y0PWExXLEdIhHfviJH2VHeeIxacRrY5rENcaYsVA8HbeKFla5EZZPL3pbtN5irLdBg974LQjXW6hjONcTLr/Syt/yqzdPE1blj5CX3kLNeaVfFT+GxfLXtTXxh6kz4VXlJJx4uoZykh4oXeIoHa7jeojp603ggnDOx/RifOWp85JP26lrZ7NYzHI7T7ts43oTuS1QxgyAb7vFb82J/CPPhRKQPhoMMZyPvipcYEHhI53DwPfRZFGJFEpCCuN8pC4+8P03ysm5QsEoQx+lrs68BJXlSMofvzkYIQ/iFeNWsgZRTsH330gXeeTLmsStep+U6qIPbPMCUNLBghXjk2ehmKX8eGO5XxRqjBknVqCMGQAvrkQpYZmIz5/UMezHkZn0+QAtikyk7j0lK+UX+omP4iJQgAjnfKQuvuADtCgZ58+fL0Mepa7OWs6j/Cgr/WAJDkUpV9RYauT6uEyIMknc9eyDsEBdcMvLy2XIllIFeXzesE7dUFqNMWacWIEyZghQSpiUo1WDt3kz8WufDQrA8ePHk/JRFS6Y9LHSCJQU7REaN+SD8oIF58aNG33zrarznTt3UngsfxWqe/zUCWHKD6UsKlYoe8N+FgV5oUzln/7BggXUDaqUR2OMGRnFk12raGGVG2H5PER7apbCvh38CoNi4k/HOPyiKrxQPLphpCX/888/342nPGN4dMCeH/yUIebzyiuvdP1yMb1nn302/VKOGB7LPajO7CvSdQrP6yXidfxS7lwuUQ7RT5rxuphHVRli3Hie69oOcjCLzyy387TLNq49UP6Ui+nB8jFmsfA93Q5muZ2nXTZ/ysUYY4wxZkZopQXKGGOMMZNjES1QXsIzPVg+xiwWvqfbwSy387TL5iU8Y4wxxpgZwQrUBED7rnKCv1/Hd+KIunDTiz75Uecm9YoAY8zkiJ8Uio7XXIDeWaZXagheb0G4X3NRD2Om5JnLzzzECtSYofOtrq4m8yVuvXzxn96Bg5JU9UbnunDzKLz3h/cCIVvJGUfY2traI+8LMg8nFzkmI2PmCd5PFu934H7njfT076XwBnyhd4Upvo7NQ6QwISPmrn4v3G07VqDGzObmZnrhojhx4kS6yfVyQl5IKKUqUhduzCjg6TtOPvlnVYyZdeKeFvrzSnjBq5SrHD7xo5fanjp1Kh2bR9FDJ3PXOPYOLQpWoMYMT0M44CZnuWnQW5zNeIgmfz1l8QQaLTE4zNcsA+ThMvnzqzBQutHsDYoHCidM8XjztsIpR4wf88ifkqP1iLSUf90ycIwL1I1v9SmcvCDPM/ohLpVClYwk16plVYjXkG5+LD91ivWK57gml0GOzlGnWK/o17HKqnaRHKvk2k/WZrJokqdv8NmhYd5kz/cUNR6jZOn7iuYh8csDfLfSFvw+FFp6q5hWlXmrM3nzluQczvEm5Zy68HEyr12CN1AjrwhhvN0aeCO1/PzGeupN3IRzjeCY9ortQJji86s3XZOe/KShOIA/T0MoDfJROH7F5bpYJpGXtard8muJo/LHcPJS3vglR+KpHsSP4Sqfyg9RxtRB18Y0dR3nVeaYRqw7EIcwiOnXxRHkF+PgVxz8Ko9kTxqxvMqnKu2qsFmG8i4y1E/tlZO3VS6LRZLNKOuiewKn+2InTFvO43oTuS1QEyJfujOThe++6aO4WACLSTJZMprCd+34zh1WCH5JV7AkAGfPnu3cvHkz+QUfEC4GpXRd/kFinp4PHTrUs/zAvi4sIlzXD1liqigGjWRpEsVAmMoPMZzv3SkcyFP1E/HJnSdS6iJrE+UnPt/Y62ddRd6SAfJXGCgNhedg+SEOkK/SwQHf6KuDOMSvIlot9KSdy4MykUaVpctMFyyIhRJsq/6I0RIoY8alS5fKUJNjBWoCaJkg3uQejKfLMEswfNm/SuFFEWZwwenDtf1AEVlfX08TMdfmmzKZAFCgokInxYDr6kCp4TrKMQx79uwpff0hTw2edURFh/ITH6WDvi6q8lteXu7KDielTGlUKTrkhVJKHEFYTKdqApWSxflY3qaQDmnED0Sb6VO1dDdoXKX/6T7jl2NTj5fv+mMFasxwk3KTx026DML37t0rj8wkQNGIkzuKD5M3bTGsYgFYWZjMRUxzc3Mz/bJvAIsjMMhHRYSJHqtVPhFjvdI1GtgHDV7E6afAsQE0TvooOGygPXLkSGV4P8hLdeU6FNBcuUQ2nCOeZBFB3ih9msCQjfz9QIGRogXKl+uBNOSPSMkaFskjbjQ2swv/Us4fMHLLbw73GPcnxPvUVMO9xdhpaigGmFYx6SqTX5XTujJ7MRRWDPgpDOrCxw35zRvIR7LSXogYJlnHsGJS7pFxdIVyURm+Uu7TKZSJbpjyw6/0OQ/E55i8FJ8wyoP/lVde6YaTTlV8pam8IZ4nLcXhN0d5Ka6oClf+OMoT/aBjHFTJj7BYj5gmxHSRU0wjPyc5U69YXq6J11XVW+fIP7ZXXh6QPHNZx+twlCGWaV6gvItG3jZyhIsYThsLXat2XhSo0yiI91qU504YVdm2y7j2QPlTLqaHNsmHpyv2CUVLD1YI1vz/03/6T4/8qwfLSt0/fZBbMUhXLvmZ2YY2LxSihe33HvPawSy387TL5m/hjQgPJv2xfLYHcrMCNZ9YgTKLwCy387TL5m/hGTOj8A8x8F6B+UTtpnY0xphhsAXK9GD5GLNY+J5uB7ZA1WMLlDHGGGPMjGAFyhhjjDGmIVagjDHGGGMaYgXKGGOMMaYhVqCMMcYYYxpiBcoYY4wxpiGtfI2BMcYYYybHIr7GoJUK1Jfufa48MsYYY8w4ee/jH/R7oIwxxhhjjBUoY4wxxpjGWIGaU/749/80mUXl/uJzt8oznc75sxe74V//q2+UoeOF8vzmr368PDLGGGMWGytQc8pHfv0XOy988reSn9+f/+CB5IdT51Y6H/7oBzoXP73aeffPvasMHS+fXbve+cqtr3U273+nDDHGGGMWFytQcwxK0zt/7B2d737r78uQh7xj91snpjxh5Tp56qPJ/+8+/6X0a4wxxiwy/hfenMPSGdaf1754qQzpJCvQN/793/VYpcYJS4ZYvfgl79/7oxfKM1vnPvOpzyf/M8+d6Hz19teTpQqwnL3rn/945+kDv5aOIVrTWILMwbKm9AAr28rTZ8qjrePvfef7nY8/+7vpmDyx1kVY7tT59xz4mc7P7nt358LvXE7HpE9dRCz/p2/9QfqlvCiuyBz569rIT+39yc7f3Pnb5Ke/oWRSTvLbteft3TTz+lD/WDaQvGJc5Y+8o/zIa1D97qz/dedb3/x2Os7lRx0p3y+972RPnEkp48aYxYOxfBH/hWcFas7RBBonOSb1XGkYJ1KgpCRoEhacBykm7JViUqeMnMNahj9XBqkbFi2dQ/mScsYNqTpLBuT7/e/+IJUhKi1V7Y2Scen8p7p55elHOAeSqeor4nEsF+E/9Z6f7CqEMV6UQSw/csvLhjKDhY908jpxTvFIH8hjUP1impCX+9CH3pf8eTrGGNOURVWgvIQ35zDhYlW4/Mk/KUM6nW8/+F7pGz9MsEy2wISLZaTJMh6TvRSTt73zR9NvU6Q4AGWQcoElivIMAgWmyook/sUH3psUu6Ygl89/+i+TnzxQFKvY7rInyhRWIgYnHNYprEtNifID0kFJI00sWeRB+Y0xxjzECtQCwEStDdxMqlg9JgUKgiZbHJMtlo4cJmXF0ZJUBIuMlp2GBQWJ9D7w9PvLkIeQ3t985W8HWk6wzHzsV347LfXVgZK6d/9PJ2UxKoyDQJkD2gQlCUVMkCZKG+XfrsIrBRGFUS7WNypXdQoi52J/kaKENSymGy2KxhhjrEAtBNHyc+OzX5zY3icmW5ah4kTLMlDVv/GwkimO9vYACgyT+Ilnf7n7r8JIP6sUS0ukxz6qHJaqUAxIu856oj0+wyxPyZrEhn0pRqLOsgQod7QJRCUEy5vkcfzkh8vQZrz17W/p1qGKqFxVKYgorJyL/UVlZCnUGGNMPVagFoQPHVve1jLTTrhy6TM9VhVAuUBB4twwUGYUp1wpQfEZNImfPf+x0vcQFDIsPiDFqi4dFAwtHw6C8j0olJVoLSIvXD8LEspJ3CQ+SiSzuASXL8f1o0phBdrv3KlPlEdb9axTQo0xpq14E/mCwASXbyYXTIAs4eSbu3dC/JdWlCcTeFQY4j/Hqv6Fh0VHy0soNKTJL+AnbZUfYnpAfVlCFMRn+S7+c00btwXLcP3+pZbHF1yH1UfyVTr6px9Kn4iypvwomlWyV7uJ+C+8fiAjLGdV10O/+jX9F14/mRhjzCAYGxdxE7kVKGOGBOVwO4rEdq8zxphFYFEVKC/hGTMEWHr67XWqY9Kb+o0xxkwGK1DG9IHlN56e+KfesPulAKsT1/F6iUlt6jfGGDM5vIRnjDHGmLHhJTxjjDHGGJOwAmWMMcYY0xArUMYYY4wxDbECZYwxxhjTkFZuIjfGGGPM5FjETeStVKBaVuVGWD7GLBa+p9vBLLfztMvmf+EZY4wxxswIVqAmANp3lROvvvpq58knnyyPtnjxxRe78V5//fUydDGJdcWPe+ONN8qzxiwOuu+5pw8fPpz8ZnsgP40b0Wm8ZAzhOB9L6sLNQ+KYbDnVYwVqzND5VldXk/kSt76+nsI3NjbSL8rTsWPHkl9oACD+2tpaZ//+/el4EXnmmWc6ly5d6soHzpw509nc3Ex+DXZynnTMPLOyspL6Mff02bNny1CzHZ544onuuKGxg/HyqaeeSuPG0tJSCovUhZuHSGFCpsxd58+fT8fmUaxAjRkUgX379pVHnc6JEyfSTc7ND0ePHu0qVYIB4PTp08nPeW74RbRCcaNevHixc+PGjTKkk+qNfAQKVhwkr127Vp4xZv64cOFCty9zn5vtE/e0ME6gnDJegpSrnLpw04vmH+aucewdWhSsQI0ZBkkNlNzkLNXpJh8Wrtm1a1d5tDhcvXo1KYdSJgXyQWYojQcPHuxan5Cf4FweLpN+ND/nEFfnYhpYAiMc65zSpx04Jp+YDopgPFZasRxyL7/8ctfPeZWZtDnWNfmSrsjLDyqXHHGq0ornRQyTXy7KJOYBUXZyenIVVWnilG6eJlRdg9IhfyxTnbxiGpKRjuWq2gg/VMkTYlzVtWoZiXN53yJMx6QT291sD03yyJcHMfqJ2TlxPL5y5UpXzqaCQhtvFdOq8vr6esp7Y2OjDHkI5wpFojx6lOXl5dI3fiYpn9XV1b51y88jo7W1tSTDKC/8xAXKXzyJJj/XKjxCfGQOnK+Lo7aSTDiO8iF90onl4TiWWWUhD/mpQ4yjNGMcwvK+Esuq/vSFL3whhcUykEZVWlX9LIZFP2XU9aonkK7ixDz45Zoc4sZrcVCXJsQ0FT/mJWKY6kiYriH9qrrHunEeJD+loWMgLtfrmrz9FE6YZKBrSUd55NcpfNxMKp9pQf2q+h5wjjbIqQufZ0bZzuq3ON1PO2GUZdsOt2/ffnNzc3PkzhaoCZEv3Q0LT6ttfrLCAiXOnTvXuXXrVufOnTudQ4cOlaFb4Tdv3iyPOp1Tp06lX/aYxPAcLAvst6ri7t27afkVK0GOLAnXr19Px7Qp8WmrJvvVZJUQPOkdP348hRX3/CN9hbpoORgLXTEZd7797W8/8oRIf6lLqxgYu+WXdSai88hZ/Y56yopKusSRBYYnf+IfOHCgkWW1X5p1KC8cVNWxSkb0F6iqG9dhwSgUnnRMGlXyLAbgbv7sWVTbV4FclZfSjbLO291sH+7hQoFtbNU3/eE+4N4olKe0R9VUYwVqAnCTY6qPN7mWC/qhQTefSBcFJjomonzipN7DyEfs3r279A0Pig6TPgNEFSyxoJgxiOQQhmNyFpoQ17P9bHX7B6g3SmCePpM+YaRXpeBEBvWLqrSY0AmjnCj1OTqPbOqWl6QUAJMX8VFKtNS1HWKadTJTXrSZ8hokryijqrrxS9lReAZBvlwvJ6rKS9+IcaUs1rW7aU7V0l2TccMMJn+YML1YgRozDOrc5HHzMwrDvXv3yqNqiMMErg68k8lpVmFSYVKM1iRgYqfeR44cSRYiKVhMdFgc9u7dm2SqCRPrQFQGsBwB6/dVSgKgQPR7amWiG3bDOuVgwoyDDWH9BnPiY7WKxDbm/IMHD8qjLbDGxfqw+b6uDoPSGgQyllLB9UqPtkDpyJU3lJJcEe5HVZpYirQ3aRiq6jiMjFQ3lTdOwHWg7EdrJXnTvlVKG/2a/qNz1El+ypm3u9keWALzB5Z+FmfTHPptPj6bQPEk1ComXWXyq3JaV2ZvhcKKJ+QUxnp+jIurW+MfNeQ1adhDEusaQU4Kl8wgyojrBcfIkd9isipDHxLzimnk8uVanSM9OY45F9MpJuOeuPGXMsc2fumll7p+zsX4eTpVxHKRrlAYDqrSinFwsVx5G+CivGM4xGvlYnlgkKx1jAPF4TfGf+WVV7p+OaiTV5WMdCynukX586s+E+OKWB+ux+EnD/lxlCuWnzRjWYkb8x035LNoxDaOTu0HMRz5i7rweYf6jILYl6M8d8KoyrZdxrUHyp9yMT3Mu3wofzEoLuyypzFN8ZjXDma5naddNn/KxRhjjDFmRrACZRYGNn6D1+yNMcaMGy/hmR4sH2MWC9/T7cBLePV4Cc8YY4wxZkawAmWMMcYY0xArUMYYY4wxDbECZYwxxhjTECtQxhhjjDENaeW/8IwxxhgzORbxX3h+jYHpwfIxZrHwPd0OZrmdp102v8bAGGOMMWZGsAI1AdC+q5zga+18jT7CV7AVr8kX6qcNbwNXuflafR4Wv6BvjDHbJY4r0TF2whtvvJGO+RVxXNX4ZB4lytbUYwVqzHDzrq6uJvMlbn19PYXzwVtAOTp27FjyR65cudKNf/bs2TJ09rl27VpnZWWls7a21jl9+nQ3bGlpKcnhwoULKcyMDvqQBrtZnxhiOfOHBmOawAfDNa7igHHnqaeeSuMuY07OuXPnUlzG3zNnznSVLfMQxg/mHOTEWK5PZJlHsQI1ZjY3Nzv79u0rjzqdEydOpJucmx+OHj3aVaoip06dSr8MBvM+0WB18mQ5Hpgobt261TORSHGdNRiIYznv3r1bnjGmOXFPC2MMkz3jKUi5yuFhDjhP/Nu3b6dj8xDGD+YdYB66fv168ptHsQI1ZuiI6oxSJHST90MKFtfopp9HeMI7cOBAtz6CeskSQZx4HN0LL7yQfiU7/LKwRHO8npIUR05xq9LX06eOiQNKgzTjdc8991zXH/NWHjJ71ymL0VJUdY38uJgvceXP871z505KR2FxuTemUVVXlUfnQMseONLvVyfFk1OcWEbJlHQPHjzYDSddEctJmWIZ5FRGtU10EPPM06Aeui7KGX9sE9LIr8vROcoc2wuq6h3rhlO9VZ4ohxim+DGf2LZma6IH5HLx4sXG1m0UsD179pRHpgrG7SpLnikptPRWMa0qr6+vp7w3NjbKkIdwruik5dFDCOOa5eXlMmT8jEI+xZPdm2tra12/fldXV5OfcwonTH7qiyyAcMXnV7KTHAG5KD7Xch6n85yLsqsqC+fVJso/pgExH/yqW16PWGelL/KykL7iq26gesg/KF/ClZfKzS9hCicNheMnXcjLKEg/L2sVpJfXAaf0AT/5EC+Gq9wxfpRRLEOsC/Hl5zrJR2lwXuXtVw+VF5Cl6hHLGOOIKD/ATxxcHl5VTpUhllPkYfgpVyzfdsjzWTQkpyo4l7ehiH1jERhHO9Nv1Y93wrT74O3bt9/c3NwcubMFakLkS3fDwBJH0YGTCZUn43mDp2ctRUZYcjp+/Hjy8xQ5zJNjMYkk2WHNKwa+9LSPZW7Xrl3p6bwYJMuYWxDGfodB1jtkW0xw3TSiSZ8wXJUJG+tE3Lt28+bNdEx8noY5jpAuFhhRDEpJDk3J8wUtESMf5IRVivwVLpnJWkU9KeeRI0fScR2yxjSBPA4dOlQebe05kSxiOHssCKfM9HPqtX///vLsFshd+fdblqQvqE60pcJAadTVA+sO7QXUV+kovmQWiXHwQ796A3UjfjGWlyFbKJ0q6xJp09ZYSoaxWrcRxhj6fFP50D8Yk01/2Is7q1sCZgErUBOAmxzzfLzJq5YHqtDkN2+gHFQt3YkHDx6Uvu2DXJm0mJQ0cQrCmKSZnETde0CIKxcHC4Xl8pcCg0IcQdnVNYMUt+0sHdTlOwyxHZAVaVy9erUMeRQUD8m2DpSGvXv3lkfV7N69u/TVozZCfhHkrvzjUleV7BRXTsvmMTwHOdBHmIAFYTGdqok5xsn7ncjrrb5BXaXcAWFSlHKKJ9yUPpudzaNULd0NO66i4Fop7Q+y1IOuqcYK1JhhsOQmjxMqT7r37t0rjwbDE3qdIjKrUMe6AQrF6vLly+XRcIOeLHD8Ig8myBs3biRXhybRl19+uXb/CBOs8iftYcqC8pE/lWFdYlAWKHcRrEFMhKpHtMINS1W+PEXHJ2nkgdwpT1W4wH/p0qVueXKQy6BN3vfv33+kX6JQ0d+lJGB5oxzkVxXOMXn1e8pFdpQFmaJU5NDOKHxKm7aWvx8oLuojoLqor5BGXb/Jqat3DnUd5uGBdqE/UW+slTyAmV5QOnOlO7f8VoEsNR7n96nZQv2e+2PYcbGVFE9ArWLSVSa/Kqd15WIA6IYVT5uPhOEmyU7zKyaIbrlVxxjGfo48rFAMUng8jn7SQTYKQz4Qr9H5GA9HHKXHb0ybdIpJtHuMA6VBGWMehQLU9cd0VM+qMkaIl18T5VDn4nVV+cY0Yr5V4TrO5SKiPEg/yjWSyznGiWUkH1EXrjCl+ZGPfKQbJse1agvKGNsFYtrUu189JBf8UbbICKdj1Seic+Qf5QtV9YvlxClNlUeOaxWWp6vwqvIMg9JZJKKMoiNcxHD6Q36v49ROiwD1GQV5n8Uhu50wqrJtl+KBpnIP006dP+ViephF+fD0g8XO75CaHVhSy5cpeZp3G80eHvPawSy387TL5k+5GGNmhqo9XlaejDFtwgqUmWnYU8LeIfaXDLsfxRhjjBk3XsIzPVg+xiwWvqfbgZfw6vESnjHGGGPMjGAFypg5giXNWftLO0ur+js4v15qNca0AS/hmR4sn9mF97EsLS0lN+gdTZOGfgOzWLa243u6HcxyO0+7bF7CM6bl8KLH9ezFgbMCgyPOypMxpi1YgTJmDmBZjKc4vqm2UX6LTUt5/HKsZTR9vZ9jfnG6Hseb2eXnHVu4PDzGJx3lQdqKj3vuuee6fpYX5febi40xi46X8EwPls9sggLD51g2NzfTJ0L0aRM+i8NnUjjP53H49ALKjz7bEsOl1PDZFOIQzvucCNenVEgTUzfHKER8ToQ4Wj5U30CR4jtypItfn2shXT5T43dCzQ6+p9vBLLfztMvmJTxjWoq+V5d/dw7lCWUFUHT4cjrwjboIVisGsPyjtHw/jvB+36GrAqWMa3NQxKo+imuMMYuIFShjFgB9rBdla8+ePWXoFuyb4ulvdXW1DNlieXk5hWE1GhYULixhXBuR4rS2tpZ+jTFm0bECZcyMI8uTLFEC6xNWKLGyspKW4LR8NwxYn5pYjVDEcksYoDg1tWQZY8w84z1QpgfLZzZhPxJLcZH8lQFxzxKgTGGVAhQcKUovvfRS51/9q3+V/LJKsbz3/PPPJ5eDYobVic3rWJ5QoJQu1ymNmAdhVqhmA9/T7WCW23naZRvXHigrUKYHy2e2QUnSJvIcLFR37txpZIEaBGmeP3/em8LnGN/T7cAKVD3eRG6M6cvVq1dHqjwB1iYrT8YY8yittEAZY4wxZnIsogXKS3imB8vHmMXC93Q7mOV2nnbZvIRnjDHGGDMjWIGaAGjfVU7wHh5eTlgFm4Z50/Osos+G1Dn+CWbmF/olG8lxdX20jdCv9f4sychMlrqxhzETaBOOY9twTvH8uaF6kI3k5L5djxWoMUPn4y/dmC9x+hgsfwkHBuF+7+Hhb+mzDH+Z52/u/IVddcQRRr3bvgE5H+TnbTA6efJkel0Cbtb74iQ5fvx4um9p00OHDlW+G8uMF2QexxxgHOLzQtxn9Nkc+jBxGX95BYeULfMQjVHIiTGcf+GaaqxAjRm+XbZv377yqJP+gs5NrgGXf03VfWEf5ergwYPlkZk3eIrje3FxkJ+3iZZ3Oanso/6H3zzDJC25+F+K0yHuacEiyEOb+qiUqxy9I43zxL99+3Y6Nr3oHW7MXePYO7QoWIEaMwy0OOAmx9w/7ETEm6aj8jWv8JROvak//rgkGU3FcUlEYbhoaleYlgZ5WopxcUpf+eEgz0v+5557rusnjqxGWrKKceueWHVe1wCfVNF36HAQlxBiuipzDFO9cyuW6h7rI5fLUOnG4yiXl19+ueuPZYtx8OeyFLEMdcsjsU60l+IRp6oOv/Ebv9H1x/h5meSP7VcXBz/EMIj5x3L26xPRH6+hnCLKgjhR/vLH8/wSrvJVtZuoCmsjmuSRHy92barIohjknz0yD798AHxf0y/E7UOhpbeKaVV5fX095b2xsVGGPIRzS0tL5dEWxdNR+uXc8vJy8k+C7ciHsq6trZVHWxC2urqa/Kq74uAnjGPVE7koXH6I9edX8kNenAN+8+tIW/nzq3xIQ+WI+eOPclY6pKlw8sjbCQhTuUhP5SQNhVMGpRPLw3mlGesKXK+yKq0YH5ROTJNfyYb0SEPlEYQrDvElq1iGvL6xnhHlAVGmkVy+ig9VdaiLn8epil9XB+KonjGduvLHNCHKL7Yt8XV9JOYR2y1vC+JQTsKUDn7C8rhQFdaPJnHnkSi3HM6pnXJi2y4Co2xn9TGc7pmdMMqybYfbt2+/ubm5OXJnC9SEyJfu+sFTd/zG2SJQTB5dy1txQybTefyWW5VJnafs+GmS69evp3QIL27wvuZ30maPA3H55VMkQntXqvaeyaIleLM3+RKGNYl8iSPkV7ueOnUqxQfKqnCe4hQOPDGTJnEE9YlLtsiJegjist+m6i3kEeoqyxd5xjQIU3gOT/L552IE11D3fmCpqdvPR9tTblmUdu/eXZ6pZpj4ly9fLn3DMao+EcEKpM/a1EH5YzvnyHJCnPweEeSPo43MQ7DYMW4Ma9UXtAljsqmGcavQO1I/vHTpUhlqcqxATQBucszu8SZnsqmDN0prQGdCY7Lj+kUnX2vnBmYPUZy8CJOTaZmJRsukERRWxY1Kh8L5jSBnFBTORRiglQ6unxLc71xEafZTSvLlBeIy6SMPKW51+xOIq/LGpQ2FFU/fZcgWKBQoGOvZfjzSIT+u6acESPHIZRphQzp9O2+vujpUxUcmUj6HlXVkVH0CkAf9k7asg7LyEDBI+RwE+ZNGnYLaRqqW7vqNqxHapKnS1Ua8fNcfK1BjhicdbnJZUYDJ7969e+XRo9BpNcgzoTHZDbI6zDpxAuGJ5siRI8n6FCeEmzdvpvCIJk5khhw0QHLcb7AkbSY3oT0w/aiS8969e1P7SWEhT/lBk7jKQnszoRKO0puH94P9bigySh+Fhn97RUiXiZv+VFd/Jvz4z5lh6s6TZtUeEvKqUh5yUDwGDba0LW0vxRCZ9GvDPD4w6eneaGqlHVWfEPTpKsU9QpvHe78fVfeIqYexI1f4GUMGwX2pNhmmD7QZ7lHGE1NDMRC1iklXmfyqXDFhpfPa+4ArJqsUFuF8MYiXR+OHcjSBsuV1imHFBNLdh5LHA84rvJiEU1iMiyMOFBNMTzjEYznJK5aDtMk3HstfKC1dP3GUv9ojXqeyRGK5YhtWhcf2jmVQmWNeklOsh+IqHeLkaYKOcZRDdeLaKPOXXnqp64/liXHwxzJEYnnj9Sp7jsoOg+oAMX4kxo/tV+fUbrEe5FNX/n59Qmngj9fHcub1kZ9rY1sI4iscJ/nFMBxpVV3fD+IuGrEdo4syieHcA/n4gau6n+cV6jMKYp8eto8NYlRl2y63x7QHyp9yMT2MQz48xbDfYBxWNPag5E/4PFU2/UeOmQxYnJosCzSNP6+M8x7xmNcOZrmdp102f8rFmAqqlkesPBljjBk3tkCZHsYhH9KElZUVKzctRX1g2L7VNP68M857ZBz3tJk9Zrmdp122cVmgrECZHiwfYxYL39PtwApUPV7CM8YYY4yZEaxAGWOMMcY0xAqUMcYYY0xDrEAZY4wxxjTECpQxxhhjTENa+S88Y4wxxkyORfwXXusUKGOMMcZMlj/8wz8sfTvjR37kRzq/8Au/UB4NhxUoY4wxxswlKFDvete7Oj/8wz9chjTnm9/8Zucf/uEfrEAZY4wxph2gQL33ve/t/LN/9s/KkObcunWr84Mf/GBmFChvIjfGGGOMaYgVKGOMMcaYhliBMsYYY4xpiBUoY4wxxpiGWIEyxhhjjGmIFShjjDHGmIZYgTLGGGOMaYgVKGOMMcaYhliBMsYYY4xpiBUoY4wxxpiGWIEyxhhjjGmIFShjjDHGmIZYgTLGGGOMaYgVKGOMMcaYhjz2ZkHpN8YYY4wZOX/4h3/Y2b17d+eHfuiHypDm/OAHP0i/v/ALv5B+h+XLX/5y5/HHHy+PRocVKGOMMcaMlT/7sz8rfTvjH/2jf9R5//vfXx4NhxUoY4wxxpiGjEuB8h4oY4wxxpiGWIEyxhhjjGmIFShjjDHGmIZYgTLGGGOMaYgVKGOMMcaYhliBMsYYY4xpiBUoY4wxxpiGWIEyxhhjjGmIFShjjDHGmIZYgTLGGGOMaYgVKGOMMcaYhliBMsYYY4xpiBUoY4wxxpiGWIEyxhhjjGmIFShjjDHGmIZYgTLGGGOMaYgVKGOMMcaYhliBMsYYY4xpiBUoY4wxxpiGWIEyxhhjjGmIFShjjDHGmIZYgTLGGGOMaYgVKGOMMcaYhliBMsYYY4xpiBUoY4wxxpiGWIEyxhhjjGlEp/P/B2bKmp4o5TRVAAAAAElFTkSuQmCC;" vertex="1" parent="1">
          <mxGeometry x="-280" y="160" width="592" height="643" as="geometry" />
        </mxCell>
        <mxCell id="0IBKbkdzDP0uwMvQtR2e-13" value="" style="edgeStyle=orthogonalEdgeStyle;rounded=0;orthogonalLoop=1;jettySize=auto;html=1;entryX=0;entryY=0.5;entryDx=0;entryDy=0;" edge="1" parent="1" source="0IBKbkdzDP0uwMvQtR2e-6" target="0IBKbkdzDP0uwMvQtR2e-12">
          <mxGeometry relative="1" as="geometry">
            <Array as="points">
              <mxPoint x="561" y="342" />
            </Array>
          </mxGeometry>
        </mxCell>
        <mxCell id="0IBKbkdzDP0uwMvQtR2e-36" value="z4/3" style="edgeLabel;html=1;align=center;verticalAlign=middle;resizable=0;points=[];" vertex="1" connectable="0" parent="0IBKbkdzDP0uwMvQtR2e-13">
          <mxGeometry x="-0.329" y="1" relative="1" as="geometry">
            <mxPoint as="offset" />
          </mxGeometry>
        </mxCell>
        <mxCell id="0IBKbkdzDP0uwMvQtR2e-14" value="" style="edgeStyle=orthogonalEdgeStyle;rounded=0;orthogonalLoop=1;jettySize=auto;html=1;entryX=0;entryY=0.5;entryDx=0;entryDy=0;exitX=1;exitY=0.5;exitDx=0;exitDy=0;" edge="1" parent="1" source="0IBKbkdzDP0uwMvQtR2e-6" target="0IBKbkdzDP0uwMvQtR2e-11">
          <mxGeometry relative="1" as="geometry">
            <mxPoint x="570" y="310" as="sourcePoint" />
            <Array as="points" />
          </mxGeometry>
        </mxCell>
        <mxCell id="0IBKbkdzDP0uwMvQtR2e-16" value="z3/4" style="edgeLabel;html=1;align=center;verticalAlign=middle;resizable=0;points=[];" vertex="1" connectable="0" parent="0IBKbkdzDP0uwMvQtR2e-14">
          <mxGeometry x="-0.1794" y="-2" relative="1" as="geometry">
            <mxPoint x="-2" as="offset" />
          </mxGeometry>
        </mxCell>
        <mxCell id="0IBKbkdzDP0uwMvQtR2e-6" value="3" style="ellipse;whiteSpace=wrap;html=1;aspect=fixed;" vertex="1" parent="1">
          <mxGeometry x="530" y="240" width="43" height="43" as="geometry" />
        </mxCell>
        <mxCell id="0IBKbkdzDP0uwMvQtR2e-21" value="" style="edgeStyle=orthogonalEdgeStyle;rounded=0;orthogonalLoop=1;jettySize=auto;html=1;entryX=0;entryY=0.5;entryDx=0;entryDy=0;" edge="1" parent="1" source="0IBKbkdzDP0uwMvQtR2e-11" target="0IBKbkdzDP0uwMvQtR2e-18">
          <mxGeometry relative="1" as="geometry">
            <Array as="points">
              <mxPoint x="678.5" y="261" />
              <mxPoint x="758.5" y="262" />
            </Array>
          </mxGeometry>
        </mxCell>
        <mxCell id="0IBKbkdzDP0uwMvQtR2e-24" value="z5/5" style="edgeLabel;html=1;align=center;verticalAlign=middle;resizable=0;points=[];" vertex="1" connectable="0" parent="0IBKbkdzDP0uwMvQtR2e-21">
          <mxGeometry x="0.1502" y="2" relative="1" as="geometry">
            <mxPoint as="offset" />
          </mxGeometry>
        </mxCell>
        <mxCell id="0IBKbkdzDP0uwMvQtR2e-82" style="edgeStyle=orthogonalEdgeStyle;rounded=0;orthogonalLoop=1;jettySize=auto;html=1;entryX=0.5;entryY=0;entryDx=0;entryDy=0;dashed=1;dashPattern=8 8;" edge="1" parent="1" source="0IBKbkdzDP0uwMvQtR2e-11" target="0IBKbkdzDP0uwMvQtR2e-57">
          <mxGeometry relative="1" as="geometry">
            <Array as="points">
              <mxPoint x="631" y="190" />
              <mxPoint x="1300" y="190" />
              <mxPoint x="1300" y="240" />
              <mxPoint x="1382" y="240" />
            </Array>
          </mxGeometry>
        </mxCell>
        <mxCell id="0IBKbkdzDP0uwMvQtR2e-11" value="4" style="ellipse;whiteSpace=wrap;html=1;aspect=fixed;" vertex="1" parent="1">
          <mxGeometry x="618.5" y="240" width="43" height="43" as="geometry" />
        </mxCell>
        <mxCell id="0IBKbkdzDP0uwMvQtR2e-39" style="edgeStyle=orthogonalEdgeStyle;rounded=0;orthogonalLoop=1;jettySize=auto;html=1;exitX=1;exitY=0.5;exitDx=0;exitDy=0;entryX=0;entryY=0.5;entryDx=0;entryDy=0;dashed=1;" edge="1" parent="1" source="0IBKbkdzDP0uwMvQtR2e-12" target="0IBKbkdzDP0uwMvQtR2e-25">
          <mxGeometry relative="1" as="geometry" />
        </mxCell>
        <mxCell id="0IBKbkdzDP0uwMvQtR2e-12" value="6" style="ellipse;whiteSpace=wrap;html=1;aspect=fixed;" vertex="1" parent="1">
          <mxGeometry x="610" y="320" width="43" height="43" as="geometry" />
        </mxCell>
        <mxCell id="0IBKbkdzDP0uwMvQtR2e-40" style="edgeStyle=orthogonalEdgeStyle;rounded=0;orthogonalLoop=1;jettySize=auto;html=1;entryX=0.5;entryY=0;entryDx=0;entryDy=0;dashed=1;" edge="1" parent="1" source="0IBKbkdzDP0uwMvQtR2e-18" target="0IBKbkdzDP0uwMvQtR2e-25">
          <mxGeometry relative="1" as="geometry">
            <Array as="points">
              <mxPoint x="740" y="300" />
              <mxPoint x="781" y="300" />
            </Array>
          </mxGeometry>
        </mxCell>
        <mxCell id="0IBKbkdzDP0uwMvQtR2e-76" style="edgeStyle=orthogonalEdgeStyle;rounded=0;orthogonalLoop=1;jettySize=auto;html=1;entryX=0.5;entryY=0;entryDx=0;entryDy=0;dashed=1;" edge="1" parent="1" source="0IBKbkdzDP0uwMvQtR2e-18" target="0IBKbkdzDP0uwMvQtR2e-41">
          <mxGeometry relative="1" as="geometry" />
        </mxCell>
        <mxCell id="0IBKbkdzDP0uwMvQtR2e-83" style="edgeStyle=orthogonalEdgeStyle;rounded=0;orthogonalLoop=1;jettySize=auto;html=1;entryX=0;entryY=0.5;entryDx=0;entryDy=0;dashed=1;dashPattern=8 8;" edge="1" parent="1" source="0IBKbkdzDP0uwMvQtR2e-18" target="0IBKbkdzDP0uwMvQtR2e-57">
          <mxGeometry relative="1" as="geometry">
            <Array as="points">
              <mxPoint x="732" y="210" />
              <mxPoint x="1270" y="210" />
              <mxPoint x="1270" y="270" />
              <mxPoint x="1340" y="270" />
              <mxPoint x="1340" y="340" />
              <mxPoint x="1360" y="340" />
            </Array>
          </mxGeometry>
        </mxCell>
        <mxCell id="0IBKbkdzDP0uwMvQtR2e-18" value="5" style="ellipse;whiteSpace=wrap;html=1;aspect=fixed;" vertex="1" parent="1">
          <mxGeometry x="718.5" y="240" width="43" height="43" as="geometry" />
        </mxCell>
        <mxCell id="0IBKbkdzDP0uwMvQtR2e-43" value="" style="edgeStyle=orthogonalEdgeStyle;rounded=0;orthogonalLoop=1;jettySize=auto;html=1;" edge="1" parent="1" source="0IBKbkdzDP0uwMvQtR2e-25" target="0IBKbkdzDP0uwMvQtR2e-41">
          <mxGeometry relative="1" as="geometry" />
        </mxCell>
        <mxCell id="0IBKbkdzDP0uwMvQtR2e-44" value="z6/8" style="edgeLabel;html=1;align=center;verticalAlign=middle;resizable=0;points=[];" vertex="1" connectable="0" parent="0IBKbkdzDP0uwMvQtR2e-43">
          <mxGeometry x="-0.0851" y="2" relative="1" as="geometry">
            <mxPoint as="offset" />
          </mxGeometry>
        </mxCell>
        <mxCell id="0IBKbkdzDP0uwMvQtR2e-78" style="edgeStyle=orthogonalEdgeStyle;rounded=0;orthogonalLoop=1;jettySize=auto;html=1;entryX=0.5;entryY=1;entryDx=0;entryDy=0;dashed=1;" edge="1" parent="1" source="0IBKbkdzDP0uwMvQtR2e-25" target="0IBKbkdzDP0uwMvQtR2e-45">
          <mxGeometry relative="1" as="geometry">
            <mxPoint x="930" y="419.9999999999999" as="targetPoint" />
            <Array as="points">
              <mxPoint x="782" y="383" />
              <mxPoint x="962" y="383" />
            </Array>
          </mxGeometry>
        </mxCell>
        <mxCell id="0IBKbkdzDP0uwMvQtR2e-25" value="7" style="ellipse;whiteSpace=wrap;html=1;aspect=fixed;" vertex="1" parent="1">
          <mxGeometry x="760" y="320" width="43" height="43" as="geometry" />
        </mxCell>
        <mxCell id="0IBKbkdzDP0uwMvQtR2e-46" value="" style="edgeStyle=orthogonalEdgeStyle;rounded=0;orthogonalLoop=1;jettySize=auto;html=1;" edge="1" parent="1" source="0IBKbkdzDP0uwMvQtR2e-41" target="0IBKbkdzDP0uwMvQtR2e-45">
          <mxGeometry relative="1" as="geometry" />
        </mxCell>
        <mxCell id="0IBKbkdzDP0uwMvQtR2e-47" value="z7/4" style="edgeLabel;html=1;align=center;verticalAlign=middle;resizable=0;points=[];" vertex="1" connectable="0" parent="0IBKbkdzDP0uwMvQtR2e-46">
          <mxGeometry x="0.0897" y="-1" relative="1" as="geometry">
            <mxPoint as="offset" />
          </mxGeometry>
        </mxCell>
        <mxCell id="0IBKbkdzDP0uwMvQtR2e-41" value="8" style="ellipse;whiteSpace=wrap;html=1;aspect=fixed;" vertex="1" parent="1">
          <mxGeometry x="850" y="320" width="43" height="43" as="geometry" />
        </mxCell>
        <mxCell id="0IBKbkdzDP0uwMvQtR2e-49" value="" style="edgeStyle=orthogonalEdgeStyle;rounded=0;orthogonalLoop=1;jettySize=auto;html=1;" edge="1" parent="1" source="0IBKbkdzDP0uwMvQtR2e-45" target="0IBKbkdzDP0uwMvQtR2e-48">
          <mxGeometry relative="1" as="geometry" />
        </mxCell>
        <mxCell id="0IBKbkdzDP0uwMvQtR2e-50" value="z8/3" style="edgeLabel;html=1;align=center;verticalAlign=middle;resizable=0;points=[];" vertex="1" connectable="0" parent="0IBKbkdzDP0uwMvQtR2e-49">
          <mxGeometry x="0.0753" y="-1" relative="1" as="geometry">
            <mxPoint x="-4" as="offset" />
          </mxGeometry>
        </mxCell>
        <mxCell id="0IBKbkdzDP0uwMvQtR2e-45" value="9" style="ellipse;whiteSpace=wrap;html=1;aspect=fixed;" vertex="1" parent="1">
          <mxGeometry x="940" y="320" width="43" height="43" as="geometry" />
        </mxCell>
        <mxCell id="0IBKbkdzDP0uwMvQtR2e-58" value="" style="edgeStyle=orthogonalEdgeStyle;rounded=0;orthogonalLoop=1;jettySize=auto;html=1;" edge="1" parent="1" source="0IBKbkdzDP0uwMvQtR2e-48" target="0IBKbkdzDP0uwMvQtR2e-53">
          <mxGeometry relative="1" as="geometry" />
        </mxCell>
        <mxCell id="0IBKbkdzDP0uwMvQtR2e-59" value="z9/2" style="edgeLabel;html=1;align=center;verticalAlign=middle;resizable=0;points=[];" vertex="1" connectable="0" parent="0IBKbkdzDP0uwMvQtR2e-58">
          <mxGeometry x="0.1013" relative="1" as="geometry">
            <mxPoint as="offset" />
          </mxGeometry>
        </mxCell>
        <mxCell id="0IBKbkdzDP0uwMvQtR2e-48" value="10" style="ellipse;whiteSpace=wrap;html=1;aspect=fixed;" vertex="1" parent="1">
          <mxGeometry x="1030" y="320" width="43" height="43" as="geometry" />
        </mxCell>
        <mxCell id="0IBKbkdzDP0uwMvQtR2e-51" value="" style="edgeStyle=orthogonalEdgeStyle;rounded=0;orthogonalLoop=1;jettySize=auto;html=1;" edge="1" parent="1" source="0IBKbkdzDP0uwMvQtR2e-53" target="0IBKbkdzDP0uwMvQtR2e-56">
          <mxGeometry relative="1" as="geometry" />
        </mxCell>
        <mxCell id="0IBKbkdzDP0uwMvQtR2e-52" value="Z10/3" style="edgeLabel;html=1;align=center;verticalAlign=middle;resizable=0;points=[];" vertex="1" connectable="0" parent="0IBKbkdzDP0uwMvQtR2e-51">
          <mxGeometry x="0.0897" y="-1" relative="1" as="geometry">
            <mxPoint as="offset" />
          </mxGeometry>
        </mxCell>
        <mxCell id="0IBKbkdzDP0uwMvQtR2e-53" value="11" style="ellipse;whiteSpace=wrap;html=1;aspect=fixed;" vertex="1" parent="1">
          <mxGeometry x="1150" y="320" width="43" height="43" as="geometry" />
        </mxCell>
        <mxCell id="0IBKbkdzDP0uwMvQtR2e-54" value="" style="edgeStyle=orthogonalEdgeStyle;rounded=0;orthogonalLoop=1;jettySize=auto;html=1;entryX=0.5;entryY=1;entryDx=0;entryDy=0;" edge="1" parent="1" source="0IBKbkdzDP0uwMvQtR2e-56" target="0IBKbkdzDP0uwMvQtR2e-63">
          <mxGeometry relative="1" as="geometry">
            <Array as="points">
              <mxPoint x="1292" y="430" />
              <mxPoint x="1462" y="430" />
            </Array>
          </mxGeometry>
        </mxCell>
        <mxCell id="0IBKbkdzDP0uwMvQtR2e-55" value="z8/4" style="edgeLabel;html=1;align=center;verticalAlign=middle;resizable=0;points=[];" vertex="1" connectable="0" parent="0IBKbkdzDP0uwMvQtR2e-54">
          <mxGeometry x="0.0753" y="-1" relative="1" as="geometry">
            <mxPoint as="offset" />
          </mxGeometry>
        </mxCell>
        <mxCell id="0IBKbkdzDP0uwMvQtR2e-62" value="z11/2" style="edgeLabel;html=1;align=center;verticalAlign=middle;resizable=0;points=[];" vertex="1" connectable="0" parent="0IBKbkdzDP0uwMvQtR2e-54">
          <mxGeometry x="0.0956" y="-2" relative="1" as="geometry">
            <mxPoint as="offset" />
          </mxGeometry>
        </mxCell>
        <mxCell id="0IBKbkdzDP0uwMvQtR2e-56" value="12" style="ellipse;whiteSpace=wrap;html=1;aspect=fixed;" vertex="1" parent="1">
          <mxGeometry x="1270" y="320" width="43" height="43" as="geometry" />
        </mxCell>
        <mxCell id="0IBKbkdzDP0uwMvQtR2e-64" value="" style="edgeStyle=orthogonalEdgeStyle;rounded=0;orthogonalLoop=1;jettySize=auto;html=1;" edge="1" parent="1" source="0IBKbkdzDP0uwMvQtR2e-57" target="0IBKbkdzDP0uwMvQtR2e-63">
          <mxGeometry relative="1" as="geometry" />
        </mxCell>
        <mxCell id="0IBKbkdzDP0uwMvQtR2e-65" value="Z12/3" style="edgeLabel;html=1;align=center;verticalAlign=middle;resizable=0;points=[];" vertex="1" connectable="0" parent="0IBKbkdzDP0uwMvQtR2e-64">
          <mxGeometry x="-0.3147" y="-1" relative="1" as="geometry">
            <mxPoint as="offset" />
          </mxGeometry>
        </mxCell>
        <mxCell id="0IBKbkdzDP0uwMvQtR2e-57" value="13" style="ellipse;whiteSpace=wrap;html=1;aspect=fixed;" vertex="1" parent="1">
          <mxGeometry x="1360" y="320" width="43" height="43" as="geometry" />
        </mxCell>
        <mxCell id="0IBKbkdzDP0uwMvQtR2e-67" value="" style="edgeStyle=orthogonalEdgeStyle;rounded=0;orthogonalLoop=1;jettySize=auto;html=1;" edge="1" parent="1" source="0IBKbkdzDP0uwMvQtR2e-63" target="0IBKbkdzDP0uwMvQtR2e-66">
          <mxGeometry relative="1" as="geometry" />
        </mxCell>
        <mxCell id="0IBKbkdzDP0uwMvQtR2e-70" value="Z13/2" style="edgeLabel;html=1;align=center;verticalAlign=middle;resizable=0;points=[];" vertex="1" connectable="0" parent="0IBKbkdzDP0uwMvQtR2e-67">
          <mxGeometry x="0.0269" relative="1" as="geometry">
            <mxPoint y="1" as="offset" />
          </mxGeometry>
        </mxCell>
        <mxCell id="0IBKbkdzDP0uwMvQtR2e-63" value="14" style="ellipse;whiteSpace=wrap;html=1;aspect=fixed;" vertex="1" parent="1">
          <mxGeometry x="1440" y="320" width="43" height="43" as="geometry" />
        </mxCell>
        <mxCell id="0IBKbkdzDP0uwMvQtR2e-66" value="15" style="ellipse;whiteSpace=wrap;html=1;aspect=fixed;" vertex="1" parent="1">
          <mxGeometry x="1540" y="320" width="43" height="43" as="geometry" />
        </mxCell>
        <mxCell id="0IBKbkdzDP0uwMvQtR2e-74" style="edgeStyle=orthogonalEdgeStyle;rounded=0;orthogonalLoop=1;jettySize=auto;html=1;entryX=0;entryY=0.5;entryDx=0;entryDy=0;exitX=1;exitY=0.5;exitDx=0;exitDy=0;" edge="1" parent="1" source="0IBKbkdzDP0uwMvQtR2e-66" target="0IBKbkdzDP0uwMvQtR2e-72">
          <mxGeometry relative="1" as="geometry">
            <mxPoint x="1683.0000000000005" y="304.5000000000001" as="sourcePoint" />
          </mxGeometry>
        </mxCell>
        <mxCell id="0IBKbkdzDP0uwMvQtR2e-75" value="Z14/3" style="edgeLabel;html=1;align=center;verticalAlign=middle;resizable=0;points=[];" vertex="1" connectable="0" parent="0IBKbkdzDP0uwMvQtR2e-74">
          <mxGeometry x="-0.0777" y="-1" relative="1" as="geometry">
            <mxPoint as="offset" />
          </mxGeometry>
        </mxCell>
        <mxCell id="0IBKbkdzDP0uwMvQtR2e-85" value="" style="edgeStyle=orthogonalEdgeStyle;rounded=0;orthogonalLoop=1;jettySize=auto;html=1;" edge="1" parent="1" source="0IBKbkdzDP0uwMvQtR2e-72" target="0IBKbkdzDP0uwMvQtR2e-84">
          <mxGeometry relative="1" as="geometry" />
        </mxCell>
        <mxCell id="0IBKbkdzDP0uwMvQtR2e-86" value="Z15/4" style="edgeLabel;html=1;align=center;verticalAlign=middle;resizable=0;points=[];" vertex="1" connectable="0" parent="0IBKbkdzDP0uwMvQtR2e-85">
          <mxGeometry x="-0.296" y="-1" relative="1" as="geometry">
            <mxPoint as="offset" />
          </mxGeometry>
        </mxCell>
        <mxCell id="0IBKbkdzDP0uwMvQtR2e-72" value="17" style="ellipse;whiteSpace=wrap;html=1;aspect=fixed;" vertex="1" parent="1">
          <mxGeometry x="1640" y="320" width="43" height="43" as="geometry" />
        </mxCell>
        <mxCell id="0IBKbkdzDP0uwMvQtR2e-84" value="18" style="ellipse;whiteSpace=wrap;html=1;aspect=fixed;" vertex="1" parent="1">
          <mxGeometry x="1750" y="320" width="43" height="43" as="geometry" />
        </mxCell>
      </root>
    </mxGraphModel>
  </diagram>
</mxfile>
